<svg xmlns="http://www.w3.org/2000/svg" viewBox="0 0 900 560" aria-hidden="true"><defs>
<radialGradient id="w-glow" cx=".5" cy=".35" r=".7"><stop offset="0" stop-color="#ffe2a0"/><stop offset=".55" stop-color="#f0a24f"/><stop offset="1" stop-color="#7a3a1e"/></radialGradient>
<radialGradient id="w-halo" cx=".5" cy=".5" r=".5"><stop offset="0" stop-color="#ffd890" stop-opacity=".35"/><stop offset="1" stop-color="#ffd890" stop-opacity="0"/></radialGradient>
<radialGradient id="w-mist" cx=".5" cy=".5" r=".5"><stop offset="0" stop-color="#e8fbf6" stop-opacity=".55"/><stop offset="1" stop-color="#e8fbf6" stop-opacity="0"/></radialGradient>
<linearGradient id="w-water" x1="0" y1="0" x2="0" y2="1"><stop offset="0" stop-color="#1f6a6c"/><stop offset="1" stop-color="#062a30"/></linearGradient>
<filter id="w-soft"><feGaussianBlur stdDeviation="1.4"/></filter>
<filter id="w-blur"><feGaussianBlur stdDeviation="6"/></filter>
</defs><ellipse cx="450" cy="470" rx="380" ry="70" fill="url(#w-halo)"/><path d="M159.0 209.7L159.1 208.8L159.5 218.8L160.2 224.9L161.1 226.8L162.3 233.8L163.7 240.8L165.4 243.4L167.3 249.0L169.5 256.1L172.0 260.8L174.7 266.6L177.7 263.6L180.9 265.9L184.3 263.4L188.0 259.4L191.9 257.8L196.0 260.8L200.4 254.8L205.0 254.8L209.8 250.1L214.9 249.4L220.1 252.8L225.6 248.6L231.2 244.4L237.1 244.7L243.1 243.7L249.4 242.9L255.8 239.3L262.4 238.2L269.1 240.8L276.0 239.9L283.1 235.4L290.3 237.9L297.7 238.2L305.2 236.2L312.8 234.5L320.6 234.6L328.5 229.3L336.5 231.2L344.6 229.3L352.7 227.7L361.0 232.8L369.4 230.8L377.8 228.3L386.3 228.3L394.8 228.5L403.4 229.8L412.0 224.5L420.7 230.3L429.4 228.0L438.1 228.0L446.9 225.7L455.6 223.9L464.3 226.8L473.0 229.4L481.7 227.9L490.4 229.0L499.0 228.7L507.6 228.6L516.1 229.6L524.6 228.6L533.0 228.6L541.3 231.8L549.6 227.6L557.7 231.4L565.8 229.3L573.7 231.6L581.6 232.4L589.3 234.1L596.9 235.1L604.4 234.7L611.7 233.9L618.9 238.7L625.9 237.6L632.8 241.9L639.5 240.8L646.0 243.6L652.4 245.0L658.6 245.8L664.6 244.3L670.4 245.1L676.0 251.8L681.4 248.3L686.6 254.9L691.5 254.1L696.3 257.4L700.8 259.5L705.2 254.6L709.2 261.6L713.1 260.4L716.7 265.4L720.1 264.9L723.2 265.6L726.1 270.5L728.7 274.1L731.1 286.8L733.2 299.1L735.1 311.6L736.7 323.8L738.1 337.3L739.2 353.1L740.0 367.4L740.6 378.2L740.9 391.9L750.0 452L150.0 452Z" fill="#7d6a52"/><path d="M165.0 302.0L165.1 300.2L165.5 298.5L166.2 296.7L167.0 294.9L168.2 293.2L169.6 291.5L171.3 289.7L173.2 288.0L175.3 286.3L177.7 284.6L180.4 282.9L183.3 281.3L186.4 279.6L189.8 278.0L193.4 276.4L197.2 274.8L201.3 273.2L205.6 271.7L210.1 270.2L214.8 268.7L219.7 267.3L224.9 265.9L230.2 264.5L235.7 263.2L241.5 261.9L247.4 260.6L253.5 259.3L259.8 258.1L266.2 257.0L272.8 255.9L279.6 254.8L286.5 253.7L293.6 252.8L300.8 251.8L308.2 250.9L315.7 250.1L323.3 249.2L331.0 248.5L338.8 247.8L346.7 247.1L354.7 246.5L362.8 245.9L371.0 245.4L379.3 244.9L387.6 244.5L396.0 244.2L404.4 243.9L412.8 243.6L421.3 243.4L429.8 243.2L438.4 243.1L446.9 243.1L455.5 243.1L464.0 243.2L472.5 243.3L481.1 243.5L489.5 243.7L498.0 243.9L506.4 244.3L514.8 244.6L523.0 245.1L531.3 245.5L539.4 246.1L547.5 246.7L555.5 247.3L563.4 248.0L571.2 248.7L578.9 249.5L586.4 250.3L593.9 251.2L601.2 252.1L608.4 253.0L615.4 254.0L622.3 255.1L629.0 256.2L635.6 257.3L642.0 258.5L648.2 259.7L654.3 260.9L660.2 262.2L665.8 263.5L671.3 264.9L676.6 266.3L681.7 267.7L686.6 269.2L691.2 270.6L695.7 272.1L699.9 273.7L703.9 275.2L707.7 276.8L711.2 278.4L714.5 280.1L717.6 281.7L720.4 283.4L723.0 285.1L725.3 286.8L727.4 288.5L729.2 290.2L730.8 291.9L732.1 293.7L733.2 295.4L734.1 297.2L734.6 299.0L734.9 300.7" fill="none" stroke="#4e3e2e" stroke-width="3" opacity="1"/><path d="M162.4 322.0V313.0a2.6 2.6 0 0 1 5.2 0V322.0Z" fill="#f2a656" opacity="0.6"/><path d="M163.6 316.7V307.7a2.6 2.6 0 0 1 5.2 0V316.7Z" fill="#f2a656" opacity="0.6"/><path d="M167.0 311.5V302.5a2.6 2.6 0 0 1 5.2 0V311.5Z" fill="#f2a656" opacity="0.6"/><path d="M172.7 306.3V297.3a2.6 2.6 0 0 1 5.2 0V306.3Z" fill="#f2a656" opacity="0.6"/><path d="M180.7 301.3V292.3a2.6 2.6 0 0 1 5.2 0V301.3Z" fill="#f2a656" opacity="0.6"/><path d="M190.8 296.4V287.4a2.6 2.6 0 0 1 5.2 0V296.4Z" fill="#f2a656" opacity="0.6"/><path d="M203.0 291.7V282.7a2.6 2.6 0 0 1 5.2 0V291.7Z" fill="#f2a656" opacity="0.6"/><path d="M217.1 287.3V278.3a2.6 2.6 0 0 1 5.2 0V287.3Z" fill="#f2a656" opacity="0.6"/><path d="M233.1 283.2V274.2a2.6 2.6 0 0 1 5.2 0V283.2Z" fill="#f2a656" opacity="0.6"/><path d="M250.9 279.3V270.3a2.6 2.6 0 0 1 5.2 0V279.3Z" fill="#f2a656" opacity="0.6"/><path d="M270.2 275.9V266.9a2.6 2.6 0 0 1 5.2 0V275.9Z" fill="#f2a656" opacity="0.6"/><path d="M291.0 272.8V263.8a2.6 2.6 0 0 1 5.2 0V272.8Z" fill="#f2a656" opacity="0.6"/><path d="M313.1 270.1V261.1a2.6 2.6 0 0 1 5.2 0V270.1Z" fill="#f2a656" opacity="0.6"/><path d="M336.2 267.8V258.8a2.6 2.6 0 0 1 5.2 0V267.8Z" fill="#f2a656" opacity="0.6"/><path d="M360.2 265.9V256.9a2.6 2.6 0 0 1 5.2 0V265.9Z" fill="#f2a656" opacity="0.6"/><path d="M385.0 264.5V255.5a2.6 2.6 0 0 1 5.2 0V264.5Z" fill="#f2a656" opacity="0.6"/><path d="M410.2 263.6V254.6a2.6 2.6 0 0 1 5.2 0V263.6Z" fill="#f2a656" opacity="0.6"/><path d="M435.8 263.1V254.1a2.6 2.6 0 0 1 5.2 0V263.1Z" fill="#f2a656" opacity="0.6"/><path d="M461.4 263.2V254.2a2.6 2.6 0 0 1 5.2 0V263.2Z" fill="#f2a656" opacity="0.6"/><path d="M486.9 263.7V254.7a2.6 2.6 0 0 1 5.2 0V263.7Z" fill="#f2a656" opacity="0.6"/><path d="M512.2 264.6V255.6a2.6 2.6 0 0 1 5.2 0V264.6Z" fill="#f2a656" opacity="0.6"/><path d="M536.8 266.1V257.1a2.6 2.6 0 0 1 5.2 0V266.1Z" fill="#f2a656" opacity="0.6"/><path d="M560.8 268.0V259.0a2.6 2.6 0 0 1 5.2 0V268.0Z" fill="#f2a656" opacity="0.6"/><path d="M583.8 270.3V261.3a2.6 2.6 0 0 1 5.2 0V270.3Z" fill="#f2a656" opacity="0.6"/><path d="M605.8 273.0V264.0a2.6 2.6 0 0 1 5.2 0V273.0Z" fill="#f2a656" opacity="0.6"/><path d="M626.4 276.2V267.2a2.6 2.6 0 0 1 5.2 0V276.2Z" fill="#f2a656" opacity="0.6"/><path d="M645.6 279.7V270.7a2.6 2.6 0 0 1 5.2 0V279.7Z" fill="#f2a656" opacity="0.6"/><path d="M663.2 283.5V274.5a2.6 2.6 0 0 1 5.2 0V283.5Z" fill="#f2a656" opacity="0.6"/><path d="M679.1 287.7V278.7a2.6 2.6 0 0 1 5.2 0V287.7Z" fill="#f2a656" opacity="0.6"/><path d="M693.1 292.1V283.1a2.6 2.6 0 0 1 5.2 0V292.1Z" fill="#f2a656" opacity="0.6"/><path d="M705.1 296.8V287.8a2.6 2.6 0 0 1 5.2 0V296.8Z" fill="#f2a656" opacity="0.6"/><path d="M715.0 301.7V292.7a2.6 2.6 0 0 1 5.2 0V301.7Z" fill="#f2a656" opacity="0.6"/><path d="M722.7 306.8V297.8a2.6 2.6 0 0 1 5.2 0V306.8Z" fill="#f2a656" opacity="0.6"/><path d="M728.2 311.9V302.9a2.6 2.6 0 0 1 5.2 0V311.9Z" fill="#f2a656" opacity="0.6"/><path d="M731.5 317.2V308.2a2.6 2.6 0 0 1 5.2 0V317.2Z" fill="#f2a656" opacity="0.6"/><path d="M192.0 332.0L192.1 330.4L192.5 328.8L193.0 327.2L193.9 325.6L194.9 324.0L196.2 322.5L197.7 320.9L199.4 319.3L201.3 317.8L203.5 316.2L205.9 314.7L208.5 313.2L211.4 311.7L214.4 310.3L217.7 308.8L221.2 307.4L224.8 306.0L228.7 304.6L232.8 303.2L237.1 301.9L241.5 300.6L246.2 299.3L251.0 298.1L256.0 296.8L261.2 295.7L266.6 294.5L272.1 293.4L277.8 292.3L283.6 291.2L289.6 290.2L295.8 289.3L302.0 288.3L308.4 287.4L315.0 286.6L321.6 285.7L328.4 285.0L335.3 284.2L342.3 283.6L349.3 282.9L356.5 282.3L363.8 281.7L371.1 281.2L378.5 280.8L386.0 280.3L393.5 280.0L401.1 279.6L408.7 279.4L416.4 279.1L424.0 279.0L431.7 278.8L439.5 278.7L447.2 278.7L455.0 278.7L462.7 278.7L470.4 278.8L478.1 279.0L485.8 279.2L493.4 279.4L501.1 279.7L508.6 280.1L516.1 280.5L523.6 280.9L531.0 281.4L538.3 281.9L545.5 282.5L552.7 283.1L559.7 283.7L566.7 284.4L573.5 285.2L580.3 286.0L586.9 286.8L593.4 287.7L599.7 288.6L606.0 289.5L612.1 290.5L618.0 291.5L623.8 292.6L629.5 293.7L634.9 294.8L640.2 296.0L645.4 297.2L650.4 298.4L655.1 299.7L659.7 301.0L664.2 302.3L668.4 303.6L672.4 305.0L676.2 306.4L679.8 307.8L683.3 309.2L686.5 310.7L689.4 312.1L692.2 313.6L694.8 315.1L697.1 316.7L699.2 318.2L701.1 319.8L702.8 321.3L704.2 322.9L705.4 324.5L706.4 326.1L707.1 327.7L707.7 329.3L707.9 330.8" fill="none" stroke="#4e3e2e" stroke-width="3" opacity="0.9"/><path d="M189.4 352.0V343.0a2.6 2.6 0 0 1 5.2 0V352.0Z" fill="#f2a656" opacity="0.5"/><path d="M190.4 347.2V338.2a2.6 2.6 0 0 1 5.2 0V347.2Z" fill="#f2a656" opacity="0.5"/><path d="M193.6 342.5V333.5a2.6 2.6 0 0 1 5.2 0V342.5Z" fill="#f2a656" opacity="0.5"/><path d="M198.7 337.8V328.8a2.6 2.6 0 0 1 5.2 0V337.8Z" fill="#f2a656" opacity="0.5"/><path d="M205.9 333.2V324.2a2.6 2.6 0 0 1 5.2 0V333.2Z" fill="#f2a656" opacity="0.5"/><path d="M215.1 328.8V319.8a2.6 2.6 0 0 1 5.2 0V328.8Z" fill="#f2a656" opacity="0.5"/><path d="M226.1 324.6V315.6a2.6 2.6 0 0 1 5.2 0V324.6Z" fill="#f2a656" opacity="0.5"/><path d="M238.9 320.6V311.6a2.6 2.6 0 0 1 5.2 0V320.6Z" fill="#f2a656" opacity="0.5"/><path d="M253.4 316.8V307.8a2.6 2.6 0 0 1 5.2 0V316.8Z" fill="#f2a656" opacity="0.5"/><path d="M269.5 313.4V304.4a2.6 2.6 0 0 1 5.2 0V313.4Z" fill="#f2a656" opacity="0.5"/><path d="M287.0 310.2V301.2a2.6 2.6 0 0 1 5.2 0V310.2Z" fill="#f2a656" opacity="0.5"/><path d="M305.8 307.4V298.4a2.6 2.6 0 0 1 5.2 0V307.4Z" fill="#f2a656" opacity="0.5"/><path d="M325.8 305.0V296.0a2.6 2.6 0 0 1 5.2 0V305.0Z" fill="#f2a656" opacity="0.5"/><path d="M346.7 302.9V293.9a2.6 2.6 0 0 1 5.2 0V302.9Z" fill="#f2a656" opacity="0.5"/><path d="M368.5 301.2V292.2a2.6 2.6 0 0 1 5.2 0V301.2Z" fill="#f2a656" opacity="0.5"/><path d="M390.9 300.0V291.0a2.6 2.6 0 0 1 5.2 0V300.0Z" fill="#f2a656" opacity="0.5"/><path d="M413.8 299.1V290.1a2.6 2.6 0 0 1 5.2 0V299.1Z" fill="#f2a656" opacity="0.5"/><path d="M436.9 298.7V289.7a2.6 2.6 0 0 1 5.2 0V298.7Z" fill="#f2a656" opacity="0.5"/><path d="M460.1 298.7V289.7a2.6 2.6 0 0 1 5.2 0V298.7Z" fill="#f2a656" opacity="0.5"/><path d="M483.2 299.2V290.2a2.6 2.6 0 0 1 5.2 0V299.2Z" fill="#f2a656" opacity="0.5"/><path d="M506.0 300.1V291.1a2.6 2.6 0 0 1 5.2 0V300.1Z" fill="#f2a656" opacity="0.5"/><path d="M528.4 301.4V292.4a2.6 2.6 0 0 1 5.2 0V301.4Z" fill="#f2a656" opacity="0.5"/><path d="M550.1 303.1V294.1a2.6 2.6 0 0 1 5.2 0V303.1Z" fill="#f2a656" opacity="0.5"/><path d="M570.9 305.2V296.2a2.6 2.6 0 0 1 5.2 0V305.2Z" fill="#f2a656" opacity="0.5"/><path d="M590.8 307.7V298.7a2.6 2.6 0 0 1 5.2 0V307.7Z" fill="#f2a656" opacity="0.5"/><path d="M609.5 310.5V301.5a2.6 2.6 0 0 1 5.2 0V310.5Z" fill="#f2a656" opacity="0.5"/><path d="M626.9 313.7V304.7a2.6 2.6 0 0 1 5.2 0V313.7Z" fill="#f2a656" opacity="0.5"/><path d="M642.8 317.2V308.2a2.6 2.6 0 0 1 5.2 0V317.2Z" fill="#f2a656" opacity="0.5"/><path d="M657.1 321.0V312.0a2.6 2.6 0 0 1 5.2 0V321.0Z" fill="#f2a656" opacity="0.5"/><path d="M669.8 325.0V316.0a2.6 2.6 0 0 1 5.2 0V325.0Z" fill="#f2a656" opacity="0.5"/><path d="M680.7 329.2V320.2a2.6 2.6 0 0 1 5.2 0V329.2Z" fill="#f2a656" opacity="0.5"/><path d="M689.6 333.6V324.6a2.6 2.6 0 0 1 5.2 0V333.6Z" fill="#f2a656" opacity="0.5"/><path d="M696.6 338.2V329.2a2.6 2.6 0 0 1 5.2 0V338.2Z" fill="#f2a656" opacity="0.5"/><path d="M701.6 342.9V333.9a2.6 2.6 0 0 1 5.2 0V342.9Z" fill="#f2a656" opacity="0.5"/><path d="M704.5 347.7V338.7a2.6 2.6 0 0 1 5.2 0V347.7Z" fill="#f2a656" opacity="0.5"/><path d="M219.0 360.0L219.1 358.6L219.4 357.1L219.9 355.7L220.7 354.3L221.6 352.9L222.7 351.5L224.1 350.0L225.6 348.7L227.4 347.3L229.3 345.9L231.5 344.5L233.8 343.2L236.3 341.8L239.1 340.5L242.0 339.2L245.1 338.0L248.4 336.7L251.9 335.5L255.5 334.2L259.3 333.0L263.3 331.9L267.5 330.7L271.8 329.6L276.3 328.5L281.0 327.5L285.8 326.4L290.7 325.4L295.8 324.5L301.0 323.5L306.4 322.6L311.9 321.7L317.5 320.9L323.3 320.1L329.1 319.3L335.1 318.6L341.1 317.9L347.3 317.2L353.5 316.6L359.9 316.0L366.3 315.5L372.8 315.0L379.4 314.5L386.0 314.1L392.7 313.8L399.4 313.4L406.2 313.1L413.0 312.9L419.9 312.7L426.8 312.5L433.7 312.4L440.6 312.3L447.5 312.3L454.4 312.3L461.4 312.3L468.3 312.4L475.2 312.5L482.1 312.7L488.9 312.9L495.7 313.2L502.5 313.5L509.2 313.9L515.9 314.2L522.5 314.7L529.0 315.1L535.5 315.7L541.9 316.2L548.2 316.8L554.5 317.4L560.6 318.1L566.6 318.8L572.5 319.5L578.4 320.3L584.1 321.1L589.7 322.0L595.1 322.9L600.4 323.8L605.6 324.7L610.7 325.7L615.6 326.7L620.3 327.8L624.9 328.8L629.4 329.9L633.7 331.0L637.8 332.2L641.7 333.4L645.5 334.6L649.1 335.8L652.5 337.0L655.8 338.3L658.8 339.6L661.7 340.9L664.4 342.2L666.9 343.6L669.2 344.9L671.2 346.3L673.1 347.7L674.8 349.0L676.3 350.4L677.6 351.8L678.7 353.3L679.6 354.7L680.2 356.1L680.7 357.5L680.9 359.0" fill="none" stroke="#4e3e2e" stroke-width="3" opacity="0.8"/><path d="M216.4 380.0V371.0a2.6 2.6 0 0 1 5.2 0V380.0Z" fill="#f2a656" opacity="0.4"/><path d="M217.3 375.7V366.7a2.6 2.6 0 0 1 5.2 0V375.7Z" fill="#f2a656" opacity="0.4"/><path d="M220.1 371.5V362.5a2.6 2.6 0 0 1 5.2 0V371.5Z" fill="#f2a656" opacity="0.4"/><path d="M224.8 367.3V358.3a2.6 2.6 0 0 1 5.2 0V367.3Z" fill="#f2a656" opacity="0.4"/><path d="M231.2 363.2V354.2a2.6 2.6 0 0 1 5.2 0V363.2Z" fill="#f2a656" opacity="0.4"/><path d="M239.4 359.2V350.2a2.6 2.6 0 0 1 5.2 0V359.2Z" fill="#f2a656" opacity="0.4"/><path d="M249.3 355.5V346.5a2.6 2.6 0 0 1 5.2 0V355.5Z" fill="#f2a656" opacity="0.4"/><path d="M260.7 351.9V342.9a2.6 2.6 0 0 1 5.2 0V351.9Z" fill="#f2a656" opacity="0.4"/><path d="M273.7 348.5V339.5a2.6 2.6 0 0 1 5.2 0V348.5Z" fill="#f2a656" opacity="0.4"/><path d="M288.1 345.4V336.4a2.6 2.6 0 0 1 5.2 0V345.4Z" fill="#f2a656" opacity="0.4"/><path d="M303.8 342.6V333.6a2.6 2.6 0 0 1 5.2 0V342.6Z" fill="#f2a656" opacity="0.4"/><path d="M320.7 340.1V331.1a2.6 2.6 0 0 1 5.2 0V340.1Z" fill="#f2a656" opacity="0.4"/><path d="M338.5 337.9V328.9a2.6 2.6 0 0 1 5.2 0V337.9Z" fill="#f2a656" opacity="0.4"/><path d="M357.3 336.0V327.0a2.6 2.6 0 0 1 5.2 0V336.0Z" fill="#f2a656" opacity="0.4"/><path d="M376.8 334.5V325.5a2.6 2.6 0 0 1 5.2 0V334.5Z" fill="#f2a656" opacity="0.4"/><path d="M396.8 333.4V324.4a2.6 2.6 0 0 1 5.2 0V333.4Z" fill="#f2a656" opacity="0.4"/><path d="M417.3 332.7V323.7a2.6 2.6 0 0 1 5.2 0V332.7Z" fill="#f2a656" opacity="0.4"/><path d="M438.0 332.3V323.3a2.6 2.6 0 0 1 5.2 0V332.3Z" fill="#f2a656" opacity="0.4"/><path d="M458.8 332.3V323.3a2.6 2.6 0 0 1 5.2 0V332.3Z" fill="#f2a656" opacity="0.4"/><path d="M479.5 332.7V323.7a2.6 2.6 0 0 1 5.2 0V332.7Z" fill="#f2a656" opacity="0.4"/><path d="M499.9 333.5V324.5a2.6 2.6 0 0 1 5.2 0V333.5Z" fill="#f2a656" opacity="0.4"/><path d="M519.9 334.7V325.7a2.6 2.6 0 0 1 5.2 0V334.7Z" fill="#f2a656" opacity="0.4"/><path d="M539.3 336.2V327.2a2.6 2.6 0 0 1 5.2 0V336.2Z" fill="#f2a656" opacity="0.4"/><path d="M558.0 338.1V329.1a2.6 2.6 0 0 1 5.2 0V338.1Z" fill="#f2a656" opacity="0.4"/><path d="M575.8 340.3V331.3a2.6 2.6 0 0 1 5.2 0V340.3Z" fill="#f2a656" opacity="0.4"/><path d="M592.5 342.9V333.9a2.6 2.6 0 0 1 5.2 0V342.9Z" fill="#f2a656" opacity="0.4"/><path d="M608.1 345.7V336.7a2.6 2.6 0 0 1 5.2 0V345.7Z" fill="#f2a656" opacity="0.4"/><path d="M622.3 348.8V339.8a2.6 2.6 0 0 1 5.2 0V348.8Z" fill="#f2a656" opacity="0.4"/><path d="M635.2 352.2V343.2a2.6 2.6 0 0 1 5.2 0V352.2Z" fill="#f2a656" opacity="0.4"/><path d="M646.5 355.8V346.8a2.6 2.6 0 0 1 5.2 0V355.8Z" fill="#f2a656" opacity="0.4"/><path d="M656.2 359.6V350.6a2.6 2.6 0 0 1 5.2 0V359.6Z" fill="#f2a656" opacity="0.4"/><path d="M664.3 363.6V354.6a2.6 2.6 0 0 1 5.2 0V363.6Z" fill="#f2a656" opacity="0.4"/><path d="M670.5 367.7V358.7a2.6 2.6 0 0 1 5.2 0V367.7Z" fill="#f2a656" opacity="0.4"/><path d="M675.0 371.8V362.8a2.6 2.6 0 0 1 5.2 0V371.8Z" fill="#f2a656" opacity="0.4"/><path d="M677.6 376.1V367.1a2.6 2.6 0 0 1 5.2 0V376.1Z" fill="#f2a656" opacity="0.4"/><path d="M246.0 386.0L246.1 384.7L246.4 383.5L246.8 382.2L247.5 381.0L248.3 379.7L249.3 378.5L250.5 377.2L251.8 376.0L253.4 374.8L255.1 373.5L257.0 372.3L259.1 371.1L261.3 370.0L263.7 368.8L266.3 367.7L269.1 366.5L272.0 365.4L275.0 364.3L278.3 363.2L281.6 362.2L285.2 361.2L288.8 360.2L292.7 359.2L296.6 358.2L300.7 357.3L305.0 356.3L309.3 355.5L313.8 354.6L318.5 353.8L323.2 353.0L328.0 352.2L333.0 351.5L338.1 350.8L343.2 350.1L348.5 349.4L353.8 348.8L359.3 348.2L364.8 347.7L370.4 347.2L376.1 346.7L381.8 346.3L387.6 345.9L393.5 345.5L399.4 345.2L405.3 344.9L411.3 344.6L417.3 344.4L423.4 344.2L429.5 344.1L435.6 343.9L441.7 343.9L447.8 343.8L453.9 343.8L460.0 343.9L466.1 344.0L472.2 344.1L478.3 344.2L484.4 344.4L490.4 344.7L496.3 344.9L502.3 345.2L508.2 345.6L514.0 346.0L519.8 346.4L525.5 346.8L531.2 347.3L536.7 347.8L542.2 348.4L547.7 349.0L553.0 349.6L558.2 350.3L563.4 350.9L568.4 351.7L573.3 352.4L578.1 353.2L582.9 354.0L587.4 354.8L591.9 355.7L596.2 356.6L600.4 357.5L604.5 358.5L608.4 359.4L612.2 360.4L615.8 361.4L619.3 362.5L622.7 363.5L625.8 364.6L628.9 365.7L631.7 366.8L634.4 368.0L637.0 369.1L639.3 370.3L641.5 371.5L643.5 372.7L645.4 373.9L647.1 375.1L648.6 376.3L649.9 377.6L651.0 378.8L652.0 380.1L652.7 381.3L653.3 382.6L653.7 383.8L654.0 385.1" fill="none" stroke="#4e3e2e" stroke-width="3" opacity="0.7"/><path d="M243.4 406.0V397.0a2.6 2.6 0 0 1 5.2 0V406.0Z" fill="#f2a656" opacity="0.4"/><path d="M244.2 402.2V393.2a2.6 2.6 0 0 1 5.2 0V402.2Z" fill="#f2a656" opacity="0.4"/><path d="M246.7 398.5V389.5a2.6 2.6 0 0 1 5.2 0V398.5Z" fill="#f2a656" opacity="0.4"/><path d="M250.8 394.8V385.8a2.6 2.6 0 0 1 5.2 0V394.8Z" fill="#f2a656" opacity="0.4"/><path d="M256.5 391.1V382.1a2.6 2.6 0 0 1 5.2 0V391.1Z" fill="#f2a656" opacity="0.4"/><path d="M263.7 387.7V378.7a2.6 2.6 0 0 1 5.2 0V387.7Z" fill="#f2a656" opacity="0.4"/><path d="M272.4 384.3V375.3a2.6 2.6 0 0 1 5.2 0V384.3Z" fill="#f2a656" opacity="0.4"/><path d="M282.6 381.2V372.2a2.6 2.6 0 0 1 5.2 0V381.2Z" fill="#f2a656" opacity="0.4"/><path d="M294.0 378.2V369.2a2.6 2.6 0 0 1 5.2 0V378.2Z" fill="#f2a656" opacity="0.4"/><path d="M306.7 375.5V366.5a2.6 2.6 0 0 1 5.2 0V375.5Z" fill="#f2a656" opacity="0.4"/><path d="M320.6 373.0V364.0a2.6 2.6 0 0 1 5.2 0V373.0Z" fill="#f2a656" opacity="0.4"/><path d="M335.5 370.8V361.8a2.6 2.6 0 0 1 5.2 0V370.8Z" fill="#f2a656" opacity="0.4"/><path d="M351.2 368.8V359.8a2.6 2.6 0 0 1 5.2 0V368.8Z" fill="#f2a656" opacity="0.4"/><path d="M367.8 367.2V358.2a2.6 2.6 0 0 1 5.2 0V367.2Z" fill="#f2a656" opacity="0.4"/><path d="M385.0 365.9V356.9a2.6 2.6 0 0 1 5.2 0V365.9Z" fill="#f2a656" opacity="0.4"/><path d="M402.7 364.9V355.9a2.6 2.6 0 0 1 5.2 0V364.9Z" fill="#f2a656" opacity="0.4"/><path d="M420.8 364.2V355.2a2.6 2.6 0 0 1 5.2 0V364.2Z" fill="#f2a656" opacity="0.4"/><path d="M439.1 363.9V354.9a2.6 2.6 0 0 1 5.2 0V363.9Z" fill="#f2a656" opacity="0.4"/><path d="M457.4 363.9V354.9a2.6 2.6 0 0 1 5.2 0V363.9Z" fill="#f2a656" opacity="0.4"/><path d="M475.7 364.2V355.2a2.6 2.6 0 0 1 5.2 0V364.2Z" fill="#f2a656" opacity="0.4"/><path d="M493.7 364.9V355.9a2.6 2.6 0 0 1 5.2 0V364.9Z" fill="#f2a656" opacity="0.4"/><path d="M511.4 366.0V357.0a2.6 2.6 0 0 1 5.2 0V366.0Z" fill="#f2a656" opacity="0.4"/><path d="M528.6 367.3V358.3a2.6 2.6 0 0 1 5.2 0V367.3Z" fill="#f2a656" opacity="0.4"/><path d="M545.1 369.0V360.0a2.6 2.6 0 0 1 5.2 0V369.0Z" fill="#f2a656" opacity="0.4"/><path d="M560.8 370.9V361.9a2.6 2.6 0 0 1 5.2 0V370.9Z" fill="#f2a656" opacity="0.4"/><path d="M575.5 373.2V364.2a2.6 2.6 0 0 1 5.2 0V373.2Z" fill="#f2a656" opacity="0.4"/><path d="M589.3 375.7V366.7a2.6 2.6 0 0 1 5.2 0V375.7Z" fill="#f2a656" opacity="0.4"/><path d="M601.9 378.5V369.5a2.6 2.6 0 0 1 5.2 0V378.5Z" fill="#f2a656" opacity="0.4"/><path d="M613.2 381.4V372.4a2.6 2.6 0 0 1 5.2 0V381.4Z" fill="#f2a656" opacity="0.4"/><path d="M623.2 384.6V375.6a2.6 2.6 0 0 1 5.2 0V384.6Z" fill="#f2a656" opacity="0.4"/><path d="M631.8 388.0V379.0a2.6 2.6 0 0 1 5.2 0V388.0Z" fill="#f2a656" opacity="0.4"/><path d="M638.9 391.5V382.5a2.6 2.6 0 0 1 5.2 0V391.5Z" fill="#f2a656" opacity="0.4"/><path d="M644.5 395.1V386.1a2.6 2.6 0 0 1 5.2 0V395.1Z" fill="#f2a656" opacity="0.4"/><path d="M648.4 398.8V389.8a2.6 2.6 0 0 1 5.2 0V398.8Z" fill="#f2a656" opacity="0.4"/><path d="M650.7 402.6V393.6a2.6 2.6 0 0 1 5.2 0V402.6Z" fill="#f2a656" opacity="0.4"/><path d="M594.2 500.6L612.2 498.1L612.2 432.1L594.2 434.6Z" fill="rgb(151,136,112)" stroke="rgb(151,136,112)" stroke-width=".6"/><path d="M597.6 499.4V456.1A5.6 5.6 0 0 1 608.8 456.1V499.4Z" fill="#3b2a20"/><rect x="593.1" y="439.4" width="2.2" height="60.0" fill="#fff" opacity="0.1"/><path d="M594.2 434.6L612.2 432.1L612.2 366.1L594.2 368.6Z" fill="rgb(146,133,109)" stroke="rgb(146,133,109)" stroke-width=".6"/><path d="M597.6 425.4V390.1A5.6 5.6 0 0 1 608.8 390.1V425.4Z" fill="#3b2a20"/><rect x="593.1" y="373.4" width="2.2" height="60.0" fill="#fff" opacity="0.1"/><path d="M594.2 368.6L612.2 366.1L612.2 300.1L594.2 302.6Z" fill="rgb(142,129,107)" stroke="rgb(142,129,107)" stroke-width=".6"/><path d="M597.6 359.4V324.1A5.6 5.6 0 0 1 608.8 324.1V359.4Z" fill="#3b2a20"/><rect x="593.1" y="307.4" width="2.2" height="60.0" fill="#fff" opacity="0.1"/><path d="M612.2 498.1L629.2 495.4L629.2 429.4L612.2 432.1Z" fill="rgb(146,133,109)" stroke="rgb(146,133,109)" stroke-width=".6"/><path d="M615.5 496.8V453.2A5.3 5.3 0 0 1 626.0 453.2V496.8Z" fill="#3b2a20"/><rect x="611.2" y="436.8" width="2.0" height="60.0" fill="#fff" opacity="0.1"/><path d="M612.2 432.1L629.2 429.4L629.2 363.4L612.2 366.1Z" fill="rgb(142,129,107)" stroke="rgb(142,129,107)" stroke-width=".6"/><path d="M615.5 422.8V387.2A5.3 5.3 0 0 1 626.0 387.2V422.8Z" fill="#3b2a20"/><rect x="611.2" y="370.8" width="2.0" height="60.0" fill="#fff" opacity="0.1"/><path d="M612.2 366.1L629.2 363.4L629.2 297.4L612.2 300.1Z" fill="rgb(137,125,104)" stroke="rgb(137,125,104)" stroke-width=".6"/><path d="M615.5 356.8V321.2A5.3 5.3 0 0 1 626.0 321.2V356.8Z" fill="#3b2a20"/><rect x="611.2" y="304.8" width="2.0" height="60.0" fill="#fff" opacity="0.1"/><path d="M629.2 495.4L645.2 492.3L645.2 426.3L629.2 429.4Z" fill="rgb(142,129,107)" stroke="rgb(142,129,107)" stroke-width=".6"/><path d="M632.3 493.9V449.9A4.9 4.9 0 0 1 642.1 449.9V493.9Z" fill="#3b2a20"/><rect x="628.3" y="433.9" width="1.9" height="60.0" fill="#fff" opacity="0.1"/><path d="M629.2 429.4L645.2 426.3L645.2 360.3L629.2 363.4Z" fill="rgb(137,125,104)" stroke="rgb(137,125,104)" stroke-width=".6"/><path d="M632.3 419.9V383.9A4.9 4.9 0 0 1 642.1 383.9V419.9Z" fill="#3b2a20"/><rect x="628.3" y="367.9" width="1.9" height="60.0" fill="#fff" opacity="0.1"/><path d="M629.2 363.4L645.2 360.3L645.2 294.3L629.2 297.4Z" fill="rgb(132,121,102)" stroke="rgb(132,121,102)" stroke-width=".6"/><path d="M632.3 353.9V317.9A4.9 4.9 0 0 1 642.1 317.9V353.9Z" fill="#3b2a20"/><rect x="628.3" y="301.9" width="1.9" height="60.0" fill="#fff" opacity="0.1"/><path d="M645.2 492.3L659.9 489.0L659.9 423.0L645.2 426.3Z" fill="rgb(137,125,104)" stroke="rgb(137,125,104)" stroke-width=".6"/><path d="M648.0 490.7V446.4A4.6 4.6 0 0 1 657.1 446.4V490.7Z" fill="#3b2a20"/><rect x="644.3" y="430.7" width="1.8" height="60.0" fill="#fff" opacity="0.1"/><path d="M645.2 426.3L659.9 423.0L659.9 357.0L645.2 360.3Z" fill="rgb(132,121,102)" stroke="rgb(132,121,102)" stroke-width=".6"/><path d="M648.0 416.7V380.4A4.6 4.6 0 0 1 657.1 380.4V416.7Z" fill="#3b2a20"/><rect x="644.3" y="364.7" width="1.8" height="60.0" fill="#fff" opacity="0.1"/><path d="M645.2 360.3L659.9 357.0L659.9 291.0L645.2 294.3Z" fill="rgb(127,118,99)" stroke="rgb(127,118,99)" stroke-width=".6"/><path d="M648.0 350.7V314.4A4.6 4.6 0 0 1 657.1 314.4V350.7Z" fill="#3b2a20"/><rect x="644.3" y="298.7" width="1.8" height="60.0" fill="#fff" opacity="0.1"/><path d="M659.9 489.0L673.3 485.5L673.3 419.5L659.9 423.0Z" fill="rgb(132,121,102)" stroke="rgb(132,121,102)" stroke-width=".6"/><path d="M662.4 487.3V442.6A4.2 4.2 0 0 1 670.7 442.6V487.3Z" fill="#3b2a20"/><rect x="659.1" y="427.3" width="1.6" height="60.0" fill="#fff" opacity="0.1"/><path d="M659.9 423.0L673.3 419.5L673.3 353.5L659.9 357.0Z" fill="rgb(127,118,99)" stroke="rgb(127,118,99)" stroke-width=".6"/><path d="M662.4 413.3V376.6A4.2 4.2 0 0 1 670.7 376.6V413.3Z" fill="#3b2a20"/><rect x="659.1" y="361.3" width="1.6" height="60.0" fill="#fff" opacity="0.1"/><path d="M673.3 485.5L685.3 481.8L685.3 415.8L673.3 419.5Z" fill="rgb(127,117,99)" stroke="rgb(127,117,99)" stroke-width=".6"/><path d="M675.6 483.7V438.6A3.7 3.7 0 0 1 683.0 438.6V483.7Z" fill="#3b2a20"/><rect x="672.6" y="423.7" width="1.4" height="60.0" fill="#fff" opacity="0.1"/><path d="M673.3 419.5L685.3 415.8L685.3 349.8L673.3 353.5Z" fill="rgb(122,114,97)" stroke="rgb(122,114,97)" stroke-width=".6"/><path d="M675.6 409.7V372.6A3.7 3.7 0 0 1 683.0 372.6V409.7Z" fill="#3b2a20"/><rect x="672.6" y="357.7" width="1.4" height="60.0" fill="#fff" opacity="0.1"/><path d="M685.3 481.8L695.9 477.9L695.9 411.9L685.3 415.8Z" fill="rgb(122,113,97)" stroke="rgb(122,113,97)" stroke-width=".6"/><path d="M687.3 479.8V434.3A3.3 3.3 0 0 1 693.9 434.3V479.8Z" fill="#3b2a20"/><rect x="684.7" y="419.8" width="1.3" height="60.0" fill="#fff" opacity="0.1"/><path d="M685.3 415.8L695.9 411.9L695.9 345.9L685.3 349.8Z" fill="rgb(117,110,94)" stroke="rgb(117,110,94)" stroke-width=".6"/><path d="M687.3 405.8V368.3A3.3 3.3 0 0 1 693.9 368.3V405.8Z" fill="#3b2a20"/><rect x="684.7" y="353.8" width="1.3" height="60.0" fill="#fff" opacity="0.1"/><path d="M695.9 477.9L705.0 473.8L705.0 407.8L695.9 411.9Z" fill="rgb(117,110,94)" stroke="rgb(117,110,94)" stroke-width=".6"/><path d="M697.6 475.9V429.8A2.8 2.8 0 0 1 703.3 429.8V475.9Z" fill="#3b2a20"/><rect x="695.4" y="415.9" width="1.1" height="60.0" fill="#fff" opacity="0.1"/><path d="M695.9 411.9L705.0 407.8L705.0 341.8L695.9 345.9Z" fill="rgb(113,106,92)" stroke="rgb(113,106,92)" stroke-width=".6"/><path d="M697.6 401.9V363.8A2.8 2.8 0 0 1 703.3 363.8V401.9Z" fill="#3b2a20"/><rect x="695.4" y="349.9" width="1.1" height="60.0" fill="#fff" opacity="0.1"/><path d="M705.0 473.8L712.5 469.6L712.5 403.6L705.0 407.8Z" fill="rgb(112,106,92)" stroke="rgb(112,106,92)" stroke-width=".6"/><path d="M706.4 471.7V425.2A2.3 2.3 0 0 1 711.1 425.2V471.7Z" fill="#3b2a20"/><rect x="704.5" y="411.7" width="0.9" height="60.0" fill="#fff" opacity="0.1"/><path d="M705.0 407.8L712.5 403.6L712.5 337.6L705.0 341.8Z" fill="rgb(108,102,89)" stroke="rgb(108,102,89)" stroke-width=".6"/><path d="M706.4 397.7V359.2A2.3 2.3 0 0 1 711.1 359.2V397.7Z" fill="#3b2a20"/><rect x="704.5" y="345.7" width="0.9" height="60.0" fill="#fff" opacity="0.1"/><path d="M712.5 469.6L718.4 465.3L718.4 399.3L712.5 403.6Z" fill="rgb(108,102,89)" stroke="rgb(108,102,89)" stroke-width=".6"/><path d="M713.6 467.5V420.5A1.8 1.8 0 0 1 717.3 420.5V467.5Z" fill="#3b2a20"/><rect x="712.1" y="407.5" width="0.7" height="60.0" fill="#fff" opacity="0.0"/><path d="M712.5 403.6L718.4 399.3L718.4 333.3L712.5 337.6Z" fill="rgb(103,98,87)" stroke="rgb(103,98,87)" stroke-width=".6"/><path d="M713.6 393.5V354.5A1.8 1.8 0 0 1 717.3 354.5V393.5Z" fill="#3b2a20"/><rect x="712.1" y="341.5" width="0.7" height="60.0" fill="#fff" opacity="0.0"/><path d="M718.4 465.3L722.6 460.9L722.6 394.9L718.4 399.3Z" fill="rgb(103,98,87)" stroke="rgb(103,98,87)" stroke-width=".6"/><path d="M719.2 463.1V415.6A1.3 1.3 0 0 1 721.8 415.6V463.1Z" fill="#3b2a20"/><rect x="718.1" y="403.1" width="0.5" height="60.0" fill="#fff" opacity="0.0"/><path d="M718.4 399.3L722.6 394.9L722.6 328.9L718.4 333.3Z" fill="rgb(99,95,85)" stroke="rgb(99,95,85)" stroke-width=".6"/><path d="M719.2 389.1V349.6A1.3 1.3 0 0 1 721.8 349.6V389.1Z" fill="#3b2a20"/><rect x="718.1" y="337.1" width="0.5" height="60.0" fill="#fff" opacity="0.0"/><path d="M722.6 460.9L725.1 456.5L725.1 390.5L722.6 394.9Z" fill="rgb(99,95,85)" stroke="rgb(99,95,85)" stroke-width=".6"/><path d="M723.1 458.7V410.6A0.8 0.8 0 0 1 724.7 410.6V458.7Z" fill="#3b2a20"/><rect x="722.4" y="398.7" width="0.3" height="60.0" fill="#fff" opacity="0.0"/><path d="M722.6 394.9L725.1 390.5L725.1 324.5L722.6 328.9Z" fill="rgb(94,91,82)" stroke="rgb(94,91,82)" stroke-width=".6"/><path d="M723.1 384.7V344.6A0.8 0.8 0 0 1 724.7 344.6V384.7Z" fill="#3b2a20"/><rect x="722.4" y="332.7" width="0.3" height="60.0" fill="#fff" opacity="0.0"/><path d="M725.1 456.5L726.0 452.0L726.0 386.0L725.1 390.5Z" fill="rgb(95,92,83)" stroke="rgb(95,92,83)" stroke-width=".6"/><path d="M725.3 454.2V405.7A0.3 0.3 0 0 1 725.8 405.7V454.2Z" fill="#3b2a20"/><rect x="725.1" y="394.2" width="0.1" height="60.0" fill="#fff" opacity="0.0"/><path d="M725.1 390.5L726.0 386.0L726.0 320.0L725.1 324.5Z" fill="rgb(90,88,80)" stroke="rgb(90,88,80)" stroke-width=".6"/><path d="M725.3 380.2V339.7A0.3 0.3 0 0 1 725.8 339.7V380.2Z" fill="#3b2a20"/><rect x="725.1" y="328.2" width="0.1" height="60.0" fill="#fff" opacity="0.0"/><path d="M594.3 434.6L598.9 434.0L603.6 433.4L608.1 432.8L612.6 432.1L617.0 431.4L621.4 430.7L625.7 430.0L629.9 429.3L634.1 428.5L638.1 427.7L642.1 426.9L646.1 426.1L649.9 425.3L653.7 424.5L657.4 423.6L661.0 422.8L664.5 421.9L667.9 421.0L671.2 420.1L674.5 419.2L677.7 418.2L680.7 417.3L683.7 416.3L686.6 415.4L689.4 414.4L692.1 413.4L694.7 412.4L697.2 411.4L699.6 410.3L701.9 409.3L704.1 408.3L706.2 407.2L708.2 406.1L710.1 405.1L711.9 404.0L713.6 402.9L715.2 401.8L716.7 400.7L718.0 399.6L719.3 398.5L720.5 397.4L721.5 396.3L722.4 395.1L723.3 394.0L724.0 392.9L724.6 391.7L725.1 390.6L725.5 389.5L725.8 388.3L725.9 387.2L726.0 386.0" fill="none" stroke="#f3e2b8" stroke-opacity=".55" stroke-width="2.4"/><path d="M594.3 368.6L598.9 368.0L603.6 367.4L608.1 366.8L612.6 366.1L617.0 365.4L621.4 364.7L625.7 364.0L629.9 363.3L634.1 362.5L638.1 361.7L642.1 360.9L646.1 360.1L649.9 359.3L653.7 358.5L657.4 357.6L661.0 356.8L664.5 355.9L667.9 355.0L671.2 354.1L674.5 353.2L677.7 352.2L680.7 351.3L683.7 350.3L686.6 349.4L689.4 348.4L692.1 347.4L694.7 346.4L697.2 345.4L699.6 344.3L701.9 343.3L704.1 342.3L706.2 341.2L708.2 340.1L710.1 339.1L711.9 338.0L713.6 336.9L715.2 335.8L716.7 334.7L718.0 333.6L719.3 332.5L720.5 331.4L721.5 330.3L722.4 329.1L723.3 328.0L724.0 326.9L724.6 325.7L725.1 324.6L725.5 323.5L725.8 322.3L725.9 321.2L726.0 320.0" fill="none" stroke="#f3e2b8" stroke-opacity=".55" stroke-width="2.4"/><path d="M594.3 302.6L598.9 302.0L603.6 301.4L608.1 300.8L612.6 300.1L617.0 299.4L621.4 298.7L625.7 298.0L629.9 297.3L634.1 296.5L638.1 295.7L642.1 294.9L646.1 294.1L649.9 293.3L653.7 292.5L657.4 291.6L661.0 290.8L664.5 289.9" fill="none" stroke="#f3e2b8" stroke-opacity=".55" stroke-width="2.4"/><clipPath id="w-outer"><path d="M150.0 204.0L150.1 205.2L150.2 206.5L150.5 207.7L151.0 209.0L151.5 210.2L152.2 211.4L152.9 212.7L153.8 213.9L154.8 215.1L156.0 216.3L157.2 217.5L158.6 218.7L160.1 219.9L161.7 221.1L163.4 222.3L165.2 223.5L167.2 224.7L169.2 225.8L171.4 227.0L173.7 228.1L176.1 229.3L178.6 230.4L181.2 231.5L183.9 232.6L186.7 233.7L189.7 234.8L192.7 235.9L195.8 236.9L199.1 238.0L202.4 239.0L205.8 240.0L209.4 241.0L213.0 242.0L216.7 243.0L220.5 243.9L224.5 244.9L228.5 245.8L232.5 246.7L236.7 247.6L241.0 248.5L245.3 249.3L249.8 250.2L254.3 251.0L258.9 251.8L263.5 252.6L268.3 253.3L273.1 254.1L277.9 254.8L282.9 255.5L287.9 256.2L293.0 256.8L298.1 257.5L303.3 258.1L308.6 258.7L313.9 259.3L319.3 259.8L324.7 260.3L330.2 260.8L335.7 261.3L341.3 261.8L346.9 262.2L352.6 262.6L358.3 263.0L364.0 263.4L369.8 263.7L375.5 264.1L381.4 264.4L387.2 264.6L393.1 264.9L399.0 265.1L404.9 265.3L410.9 265.5L416.8 265.6L422.8 265.7L428.8 265.8L434.8 265.9L440.8 266.0L446.8 266.0L452.8 266.0L458.8 266.0L464.8 265.9L470.7 265.9L476.7 265.8L482.7 265.6L488.7 265.5L494.6 265.3L500.5 265.1L506.4 264.9L512.3 264.6L518.2 264.4L524.0 264.1L529.8 263.8L535.6 263.4L541.3 263.1L547.0 262.7L552.6 262.3L558.3 261.8L563.8 293.3L569.4 286.7L574.8 290.1L580.3 284.4L585.7 313.4L591.0 310.9L596.2 314.8L601.5 307.7L606.6 340.5L611.7 338.5L616.7 332.6L621.7 339.7L626.6 362.2L631.4 366.4L636.1 356.5L640.8 385.5L645.4 381.8L649.9 390.0L654.3 380.4L658.7 413.7L662.9 405.0L667.1 408.1L671.2 406.1L675.2 436.3L679.1 435.8L683.0 435.0L686.7 430.4L690.3 461.6L693.9 453.4L697.3 453.1L700.7 451.9L703.9 483.0L707.1 482.0L710.1 480.9L713.0 479.8L715.9 478.7L718.6 477.6L721.2 476.5L723.7 475.4L726.1 474.2L728.4 473.1L730.6 471.9L732.7 470.8L734.6 469.6L736.5 468.4L738.2 467.2L739.8 466.0L741.3 464.8L742.7 463.6L743.9 462.4L745.1 461.2L746.1 460.0L747.0 458.7L747.8 457.5L748.5 456.3L749.0 455.1L749.4 453.8L749.7 452.6L749.9 451.3L750.0 450.1L755.0 492.0L145.0 492.0Z"/></clipPath><g clip-path="url(#w-outer)"><path d="M150.0 452.0L150.9 456.9L150.9 390.9L150.0 386.0Z" fill="rgb(193,170,133)" stroke="rgb(193,170,133)" stroke-width=".6"/><path d="M150.2 454.4V405.9A0.3 0.3 0 0 1 150.7 405.9V454.4Z" fill="url(#w-glow)"/><rect x="149.9" y="394.4" width="0.1" height="60.0" fill="#fff" opacity="0.1"/><path d="M150.0 386.0L150.9 390.9L150.9 324.9L150.0 320.0Z" fill="rgb(188,166,131)" stroke="rgb(188,166,131)" stroke-width=".6"/><path d="M150.2 380.4V339.9A0.3 0.3 0 0 1 150.7 339.9V380.4Z" fill="url(#w-glow)"/><rect x="149.9" y="328.4" width="0.1" height="60.0" fill="#fff" opacity="0.1"/><path d="M150.0 320.0L150.9 324.9L150.9 258.9L150.0 254.0Z" fill="rgb(184,162,128)" stroke="rgb(184,162,128)" stroke-width=".6"/><path d="M150.2 314.4V273.9A0.3 0.3 0 0 1 150.7 273.9V314.4Z" fill="url(#w-glow)"/><rect x="149.9" y="262.4" width="0.1" height="60.0" fill="#fff" opacity="0.1"/><path d="M150.0 254.0L150.9 258.9L150.9 210.9L150.0 206.0Z" fill="rgb(179,159,126)" stroke="rgb(179,159,126)" stroke-width=".6"/><rect x="150.3" y="222.4" width="0.3" height="12" fill="#5a3a26" opacity=".85"/><path d="M150.9 456.9L153.7 461.7L153.7 395.7L150.9 390.9Z" fill="rgb(197,173,135)" stroke="rgb(197,173,135)" stroke-width=".6"/><path d="M151.5 459.3V411.3A0.9 0.9 0 0 1 153.2 411.3V459.3Z" fill="url(#w-glow)"/><rect x="150.8" y="399.3" width="0.3" height="60.0" fill="#fff" opacity="0.2"/><path d="M150.9 390.9L153.7 395.7L153.7 329.7L150.9 324.9Z" fill="rgb(192,169,133)" stroke="rgb(192,169,133)" stroke-width=".6"/><path d="M151.5 385.3V345.3A0.9 0.9 0 0 1 153.2 345.3V385.3Z" fill="url(#w-glow)"/><rect x="150.8" y="333.3" width="0.3" height="60.0" fill="#fff" opacity="0.2"/><path d="M150.9 324.9L153.7 329.7L153.7 263.7L150.9 258.9Z" fill="rgb(187,165,130)" stroke="rgb(187,165,130)" stroke-width=".6"/><path d="M151.5 319.3V279.3A0.9 0.9 0 0 1 153.2 279.3V319.3Z" fill="url(#w-glow)"/><rect x="150.8" y="267.3" width="0.3" height="60.0" fill="#fff" opacity="0.2"/><path d="M150.9 258.9L153.7 263.7L153.7 215.7L150.9 210.9Z" fill="rgb(183,162,128)" stroke="rgb(183,162,128)" stroke-width=".6"/><path d="M153.7 461.7L158.3 466.5L158.3 400.5L153.7 395.7Z" fill="rgb(200,176,137)" stroke="rgb(200,176,137)" stroke-width=".6"/><path d="M154.6 464.1V416.7A1.4 1.4 0 0 1 157.4 416.7V464.1Z" fill="url(#w-glow)"/><rect x="153.4" y="404.1" width="0.6" height="60.0" fill="#fff" opacity="0.2"/><path d="M153.7 395.7L158.3 400.5L158.3 334.5L153.7 329.7Z" fill="rgb(196,172,134)" stroke="rgb(196,172,134)" stroke-width=".6"/><path d="M154.6 390.1V350.7A1.4 1.4 0 0 1 157.4 350.7V390.1Z" fill="url(#w-glow)"/><rect x="153.4" y="338.1" width="0.6" height="60.0" fill="#fff" opacity="0.2"/><path d="M153.7 329.7L158.3 334.5L158.3 268.5L153.7 263.7Z" fill="rgb(191,168,132)" stroke="rgb(191,168,132)" stroke-width=".6"/><path d="M154.6 324.1V284.7A1.4 1.4 0 0 1 157.4 284.7V324.1Z" fill="url(#w-glow)"/><rect x="153.4" y="272.1" width="0.6" height="60.0" fill="#fff" opacity="0.2"/><path d="M153.7 263.7L158.3 268.5L158.3 220.5L153.7 215.7Z" fill="rgb(186,164,130)" stroke="rgb(186,164,130)" stroke-width=".6"/><rect x="155.2" y="232.1" width="1.7" height="12" fill="#5a3a26" opacity=".85"/><path d="M158.3 466.5L164.7 471.2L164.7 405.2L158.3 400.5Z" fill="rgb(204,178,139)" stroke="rgb(204,178,139)" stroke-width=".6"/><path d="M159.5 468.8V422.0A2.0 2.0 0 0 1 163.5 422.0V468.8Z" fill="url(#w-glow)"/><rect x="157.9" y="408.8" width="0.8" height="60.0" fill="#fff" opacity="0.2"/><path d="M158.3 400.5L164.7 405.2L164.7 339.2L158.3 334.5Z" fill="rgb(199,175,136)" stroke="rgb(199,175,136)" stroke-width=".6"/><path d="M159.5 394.8V356.0A2.0 2.0 0 0 1 163.5 356.0V394.8Z" fill="url(#w-glow)"/><rect x="157.9" y="342.8" width="0.8" height="60.0" fill="#fff" opacity="0.2"/><path d="M158.3 334.5L164.7 339.2L164.7 273.2L158.3 268.5Z" fill="rgb(194,171,134)" stroke="rgb(194,171,134)" stroke-width=".6"/><path d="M159.5 328.8V290.0A2.0 2.0 0 0 1 163.5 290.0V328.8Z" fill="url(#w-glow)"/><rect x="157.9" y="276.8" width="0.8" height="60.0" fill="#fff" opacity="0.2"/><path d="M158.3 268.5L164.7 273.2L164.7 225.2L158.3 220.5Z" fill="rgb(190,167,131)" stroke="rgb(190,167,131)" stroke-width=".6"/><path d="M164.7 471.2L172.8 475.7L172.8 409.7L164.7 405.2Z" fill="rgb(207,181,140)" stroke="rgb(207,181,140)" stroke-width=".6"/><path d="M166.2 473.4V427.1A2.5 2.5 0 0 1 171.3 427.1V473.4Z" fill="url(#w-glow)"/><rect x="164.2" y="413.4" width="1.0" height="60.0" fill="#fff" opacity="0.2"/><path d="M164.7 405.2L172.8 409.7L172.8 343.7L164.7 339.2Z" fill="rgb(202,177,138)" stroke="rgb(202,177,138)" stroke-width=".6"/><path d="M166.2 399.4V361.1A2.5 2.5 0 0 1 171.3 361.1V399.4Z" fill="url(#w-glow)"/><rect x="164.2" y="347.4" width="1.0" height="60.0" fill="#fff" opacity="0.2"/><path d="M164.7 339.2L172.8 343.7L172.8 277.7L164.7 273.2Z" fill="rgb(197,173,135)" stroke="rgb(197,173,135)" stroke-width=".6"/><path d="M166.2 333.4V295.1A2.5 2.5 0 0 1 171.3 295.1V333.4Z" fill="url(#w-glow)"/><rect x="164.2" y="281.4" width="1.0" height="60.0" fill="#fff" opacity="0.2"/><path d="M164.7 273.2L172.8 277.7L172.8 229.7L164.7 225.2Z" fill="rgb(193,169,133)" stroke="rgb(193,169,133)" stroke-width=".6"/><rect x="167.3" y="241.4" width="2.9" height="12" fill="#5a3a26" opacity=".85"/><path d="M172.8 475.7L182.7 480.1L182.7 414.1L172.8 409.7Z" fill="rgb(209,183,141)" stroke="rgb(209,183,141)" stroke-width=".6"/><path d="M174.7 477.9V432.2A3.1 3.1 0 0 1 180.8 432.2V477.9Z" fill="url(#w-glow)"/><rect x="172.2" y="417.9" width="1.2" height="60.0" fill="#fff" opacity="0.2"/><path d="M172.8 409.7L182.7 414.1L182.7 348.1L172.8 343.7Z" fill="rgb(205,179,139)" stroke="rgb(205,179,139)" stroke-width=".6"/><path d="M174.7 403.9V366.2A3.1 3.1 0 0 1 180.8 366.2V403.9Z" fill="url(#w-glow)"/><rect x="172.2" y="351.9" width="1.2" height="60.0" fill="#fff" opacity="0.2"/><path d="M172.8 343.7L182.7 348.1L182.7 282.1L172.8 277.7Z" fill="rgb(200,175,137)" stroke="rgb(200,175,137)" stroke-width=".6"/><path d="M174.7 337.9V300.2A3.1 3.1 0 0 1 180.8 300.2V337.9Z" fill="url(#w-glow)"/><rect x="172.2" y="285.9" width="1.2" height="60.0" fill="#fff" opacity="0.2"/><path d="M172.8 277.7L182.7 282.1L182.7 234.1L172.8 229.7Z" fill="rgb(195,172,134)" stroke="rgb(195,172,134)" stroke-width=".6"/><path d="M182.7 480.1L194.2 484.4L194.2 418.4L182.7 414.1Z" fill="rgb(212,185,143)" stroke="rgb(212,185,143)" stroke-width=".6"/><path d="M184.9 482.3V437.0A3.6 3.6 0 0 1 192.0 437.0V482.3Z" fill="url(#w-glow)"/><rect x="182.0" y="422.3" width="1.4" height="60.0" fill="#fff" opacity="0.2"/><path d="M182.7 414.1L194.2 418.4L194.2 352.4L182.7 348.1Z" fill="rgb(207,181,140)" stroke="rgb(207,181,140)" stroke-width=".6"/><path d="M184.9 408.3V371.0A3.6 3.6 0 0 1 192.0 371.0V408.3Z" fill="url(#w-glow)"/><rect x="182.0" y="356.3" width="1.4" height="60.0" fill="#fff" opacity="0.2"/><path d="M182.7 348.1L194.2 352.4L194.2 286.4L182.7 282.1Z" fill="rgb(202,177,138)" stroke="rgb(202,177,138)" stroke-width=".6"/><path d="M184.9 342.3V305.0A3.6 3.6 0 0 1 192.0 305.0V342.3Z" fill="url(#w-glow)"/><rect x="182.0" y="290.3" width="1.4" height="60.0" fill="#fff" opacity="0.2"/><path d="M182.7 282.1L194.2 286.4L194.2 238.4L182.7 234.1Z" fill="rgb(198,173,135)" stroke="rgb(198,173,135)" stroke-width=".6"/><rect x="186.4" y="250.3" width="4.1" height="12" fill="#5a3a26" opacity=".85"/><path d="M194.2 484.4L207.3 488.4L207.3 422.4L194.2 418.4Z" fill="rgb(214,186,144)" stroke="rgb(214,186,144)" stroke-width=".6"/><path d="M196.7 486.4V441.6A4.1 4.1 0 0 1 204.8 441.6V486.4Z" fill="url(#w-glow)"/><rect x="193.4" y="426.4" width="1.6" height="60.0" fill="#fff" opacity="0.2"/><path d="M194.2 418.4L207.3 422.4L207.3 356.4L194.2 352.4Z" fill="rgb(209,183,141)" stroke="rgb(209,183,141)" stroke-width=".6"/><path d="M196.7 412.4V375.6A4.1 4.1 0 0 1 204.8 375.6V412.4Z" fill="url(#w-glow)"/><rect x="193.4" y="360.4" width="1.6" height="60.0" fill="#fff" opacity="0.2"/><path d="M194.2 352.4L207.3 356.4L207.3 290.4L194.2 286.4Z" fill="rgb(204,179,139)" stroke="rgb(204,179,139)" stroke-width=".6"/><path d="M196.7 346.4V309.6A4.1 4.1 0 0 1 204.8 309.6V346.4Z" fill="url(#w-glow)"/><rect x="193.4" y="294.4" width="1.6" height="60.0" fill="#fff" opacity="0.2"/><path d="M194.2 286.4L207.3 290.4L207.3 242.4L194.2 238.4Z" fill="rgb(200,175,136)" stroke="rgb(200,175,136)" stroke-width=".6"/><path d="M207.3 488.4L221.9 492.3L221.9 426.3L207.3 422.4Z" fill="rgb(215,188,145)" stroke="rgb(215,188,145)" stroke-width=".6"/><path d="M210.1 490.4V446.0A4.5 4.5 0 0 1 219.1 446.0V490.4Z" fill="url(#w-glow)"/><rect x="206.4" y="430.4" width="1.7" height="60.0" fill="#fff" opacity="0.2"/><path d="M207.3 422.4L221.9 426.3L221.9 360.3L207.3 356.4Z" fill="rgb(211,184,142)" stroke="rgb(211,184,142)" stroke-width=".6"/><path d="M210.1 416.4V380.0A4.5 4.5 0 0 1 219.1 380.0V416.4Z" fill="url(#w-glow)"/><rect x="206.4" y="364.4" width="1.7" height="60.0" fill="#fff" opacity="0.2"/><path d="M207.3 356.4L221.9 360.3L221.9 294.3L207.3 290.4Z" fill="rgb(206,180,140)" stroke="rgb(206,180,140)" stroke-width=".6"/><path d="M210.1 350.4V314.0A4.5 4.5 0 0 1 219.1 314.0V350.4Z" fill="url(#w-glow)"/><rect x="206.4" y="298.4" width="1.7" height="60.0" fill="#fff" opacity="0.2"/><path d="M207.3 290.4L221.9 294.3L221.9 246.3L207.3 242.4Z" fill="rgb(201,176,137)" stroke="rgb(201,176,137)" stroke-width=".6"/><rect x="212.0" y="258.4" width="5.2" height="12" fill="#5a3a26" opacity=".85"/><path d="M221.9 492.3L237.9 495.8L237.9 429.8L221.9 426.3Z" fill="rgb(217,189,145)" stroke="rgb(217,189,145)" stroke-width=".6"/><path d="M224.9 494.1V450.2A5.0 5.0 0 0 1 234.8 450.2V494.1Z" fill="url(#w-glow)"/><rect x="220.9" y="434.1" width="1.9" height="60.0" fill="#fff" opacity="0.2"/><path d="M221.9 426.3L237.9 429.8L237.9 363.8L221.9 360.3Z" fill="rgb(212,185,143)" stroke="rgb(212,185,143)" stroke-width=".6"/><path d="M224.9 420.1V384.2A5.0 5.0 0 0 1 234.8 384.2V420.1Z" fill="url(#w-glow)"/><rect x="220.9" y="368.1" width="1.9" height="60.0" fill="#fff" opacity="0.2"/><path d="M221.9 360.3L237.9 363.8L237.9 297.8L221.9 294.3Z" fill="rgb(207,181,140)" stroke="rgb(207,181,140)" stroke-width=".6"/><path d="M224.9 354.1V318.2A5.0 5.0 0 0 1 234.8 318.2V354.1Z" fill="url(#w-glow)"/><rect x="220.9" y="302.1" width="1.9" height="60.0" fill="#fff" opacity="0.2"/><path d="M221.9 294.3L237.9 297.8L237.9 249.8L221.9 246.3Z" fill="rgb(203,177,138)" stroke="rgb(203,177,138)" stroke-width=".6"/><path d="M237.9 495.8L255.2 499.1L255.2 433.1L237.9 429.8Z" fill="rgb(218,189,146)" stroke="rgb(218,189,146)" stroke-width=".6"/><path d="M241.2 497.5V454.0A5.4 5.4 0 0 1 251.9 454.0V497.5Z" fill="url(#w-glow)"/><rect x="236.8" y="437.5" width="2.1" height="60.0" fill="#fff" opacity="0.2"/><path d="M237.9 429.8L255.2 433.1L255.2 367.1L237.9 363.8Z" fill="rgb(213,186,143)" stroke="rgb(213,186,143)" stroke-width=".6"/><path d="M241.2 423.5V388.0A5.4 5.4 0 0 1 251.9 388.0V423.5Z" fill="url(#w-glow)"/><rect x="236.8" y="371.5" width="2.1" height="60.0" fill="#fff" opacity="0.2"/><path d="M237.9 363.8L255.2 367.1L255.2 301.1L237.9 297.8Z" fill="rgb(208,182,141)" stroke="rgb(208,182,141)" stroke-width=".6"/><path d="M241.2 357.5V322.0A5.4 5.4 0 0 1 251.9 322.0V357.5Z" fill="url(#w-glow)"/><rect x="236.8" y="305.5" width="2.1" height="60.0" fill="#fff" opacity="0.2"/><path d="M237.9 297.8L255.2 301.1L255.2 253.1L237.9 249.8Z" fill="rgb(203,178,138)" stroke="rgb(203,178,138)" stroke-width=".6"/><rect x="243.4" y="265.5" width="6.2" height="12" fill="#5a3a26" opacity=".85"/><path d="M255.2 499.1L273.7 502.2L273.7 436.2L255.2 433.1Z" fill="rgb(218,190,146)" stroke="rgb(218,190,146)" stroke-width=".6"/><path d="M258.7 500.7V457.5A5.7 5.7 0 0 1 270.1 457.5V500.7Z" fill="url(#w-glow)"/><rect x="254.1" y="440.7" width="2.2" height="60.0" fill="#fff" opacity="0.2"/><path d="M255.2 433.1L273.7 436.2L273.7 370.2L255.2 367.1Z" fill="rgb(213,186,144)" stroke="rgb(213,186,144)" stroke-width=".6"/><path d="M258.7 426.7V391.5A5.7 5.7 0 0 1 270.1 391.5V426.7Z" fill="url(#w-glow)"/><rect x="254.1" y="374.7" width="2.2" height="60.0" fill="#fff" opacity="0.2"/><path d="M255.2 367.1L273.7 370.2L273.7 304.2L255.2 301.1Z" fill="rgb(209,182,141)" stroke="rgb(209,182,141)" stroke-width=".6"/><path d="M258.7 360.7V325.5A5.7 5.7 0 0 1 270.1 325.5V360.7Z" fill="url(#w-glow)"/><rect x="254.1" y="308.7" width="2.2" height="60.0" fill="#fff" opacity="0.2"/><path d="M255.2 301.1L273.7 304.2L273.7 256.2L255.2 253.1Z" fill="rgb(204,179,139)" stroke="rgb(204,179,139)" stroke-width=".6"/><path d="M273.7 502.2L293.3 504.9L293.3 438.9L273.7 436.2Z" fill="rgb(218,190,146)" stroke="rgb(218,190,146)" stroke-width=".6"/><path d="M277.4 503.5V460.7A6.1 6.1 0 0 1 289.5 460.7V503.5Z" fill="url(#w-glow)"/><rect x="272.5" y="443.5" width="2.4" height="60.0" fill="#fff" opacity="0.2"/><path d="M273.7 436.2L293.3 438.9L293.3 372.9L273.7 370.2Z" fill="rgb(214,186,144)" stroke="rgb(214,186,144)" stroke-width=".6"/><path d="M277.4 429.5V394.7A6.1 6.1 0 0 1 289.5 394.7V429.5Z" fill="url(#w-glow)"/><rect x="272.5" y="377.5" width="2.4" height="60.0" fill="#fff" opacity="0.2"/><path d="M273.7 370.2L293.3 372.9L293.3 306.9L273.7 304.2Z" fill="rgb(209,182,141)" stroke="rgb(209,182,141)" stroke-width=".6"/><path d="M277.4 363.5V328.7A6.1 6.1 0 0 1 289.5 328.7V363.5Z" fill="url(#w-glow)"/><rect x="272.5" y="311.5" width="2.4" height="60.0" fill="#fff" opacity="0.2"/><path d="M273.7 304.2L293.3 306.9L293.3 258.9L273.7 256.2Z" fill="rgb(204,179,139)" stroke="rgb(204,179,139)" stroke-width=".6"/><rect x="279.9" y="271.5" width="7.1" height="12" fill="#5a3a26" opacity=".85"/><path d="M293.3 504.9L313.8 507.2L313.8 441.2L293.3 438.9Z" fill="rgb(218,190,146)" stroke="rgb(218,190,146)" stroke-width=".6"/><path d="M297.2 506.1V463.6A6.4 6.4 0 0 1 309.9 463.6V506.1Z" fill="url(#w-glow)"/><rect x="292.0" y="446.1" width="2.5" height="60.0" fill="#fff" opacity="0.2"/><path d="M293.3 438.9L313.8 441.2L313.8 375.2L293.3 372.9Z" fill="rgb(213,186,143)" stroke="rgb(213,186,143)" stroke-width=".6"/><path d="M297.2 432.1V397.6A6.4 6.4 0 0 1 309.9 397.6V432.1Z" fill="url(#w-glow)"/><rect x="292.0" y="380.1" width="2.5" height="60.0" fill="#fff" opacity="0.2"/><path d="M293.3 372.9L313.8 375.2L313.8 309.2L293.3 306.9Z" fill="rgb(209,182,141)" stroke="rgb(209,182,141)" stroke-width=".6"/><path d="M297.2 366.1V331.6A6.4 6.4 0 0 1 309.9 331.6V366.1Z" fill="url(#w-glow)"/><rect x="292.0" y="314.1" width="2.5" height="60.0" fill="#fff" opacity="0.2"/><path d="M293.3 306.9L313.8 309.2L313.8 261.2L293.3 258.9Z" fill="rgb(204,178,139)" stroke="rgb(204,178,139)" stroke-width=".6"/><path d="M313.8 507.2L335.2 509.3L335.2 443.3L313.8 441.2Z" fill="rgb(217,189,146)" stroke="rgb(217,189,146)" stroke-width=".6"/><path d="M317.9 508.3V466.1A6.6 6.6 0 0 1 331.1 466.1V508.3Z" fill="url(#w-glow)"/><rect x="312.5" y="448.3" width="2.6" height="60.0" fill="#fff" opacity="0.2"/><path d="M313.8 441.2L335.2 443.3L335.2 377.3L313.8 375.2Z" fill="rgb(213,185,143)" stroke="rgb(213,185,143)" stroke-width=".6"/><path d="M317.9 434.3V400.1A6.6 6.6 0 0 1 331.1 400.1V434.3Z" fill="url(#w-glow)"/><rect x="312.5" y="382.3" width="2.6" height="60.0" fill="#fff" opacity="0.2"/><path d="M313.8 375.2L335.2 377.3L335.2 311.3L313.8 309.2Z" fill="rgb(208,182,141)" stroke="rgb(208,182,141)" stroke-width=".6"/><path d="M317.9 368.3V334.1A6.6 6.6 0 0 1 331.1 334.1V368.3Z" fill="url(#w-glow)"/><rect x="312.5" y="316.3" width="2.6" height="60.0" fill="#fff" opacity="0.2"/><path d="M313.8 309.2L335.2 311.3L335.2 263.3L313.8 261.2Z" fill="rgb(203,178,138)" stroke="rgb(203,178,138)" stroke-width=".6"/><rect x="320.6" y="276.3" width="7.7" height="12" fill="#5a3a26" opacity=".85"/><path d="M335.2 509.3L357.3 511.0L357.3 445.0L335.2 443.3Z" fill="rgb(216,188,145)" stroke="rgb(216,188,145)" stroke-width=".6"/><path d="M339.4 510.1V468.1A6.9 6.9 0 0 1 353.1 468.1V510.1Z" fill="url(#w-glow)"/><rect x="333.9" y="450.1" width="2.7" height="60.0" fill="#fff" opacity="0.2"/><path d="M335.2 443.3L357.3 445.0L357.3 379.0L335.2 377.3Z" fill="rgb(212,185,143)" stroke="rgb(212,185,143)" stroke-width=".6"/><path d="M339.4 436.1V402.1A6.9 6.9 0 0 1 353.1 402.1V436.1Z" fill="url(#w-glow)"/><rect x="333.9" y="384.1" width="2.7" height="60.0" fill="#fff" opacity="0.2"/><path d="M335.2 377.3L357.3 379.0L357.3 313.0L335.2 311.3Z" fill="rgb(207,181,140)" stroke="rgb(207,181,140)" stroke-width=".6"/><path d="M339.4 370.1V336.1A6.9 6.9 0 0 1 353.1 336.1V370.1Z" fill="url(#w-glow)"/><rect x="333.9" y="318.1" width="2.7" height="60.0" fill="#fff" opacity="0.2"/><path d="M335.2 311.3L357.3 313.0L357.3 265.0L335.2 263.3Z" fill="rgb(202,177,138)" stroke="rgb(202,177,138)" stroke-width=".6"/><path d="M357.3 511.0L380.0 512.3L380.0 446.3L357.3 445.0Z" fill="rgb(215,187,144)" stroke="rgb(215,187,144)" stroke-width=".6"/><path d="M361.6 511.6V469.8A7.0 7.0 0 0 1 375.7 469.8V511.6Z" fill="url(#w-glow)"/><rect x="355.9" y="451.6" width="2.7" height="60.0" fill="#fff" opacity="0.2"/><path d="M357.3 445.0L380.0 446.3L380.0 380.3L357.3 379.0Z" fill="rgb(210,183,142)" stroke="rgb(210,183,142)" stroke-width=".6"/><path d="M361.6 437.6V403.8A7.0 7.0 0 0 1 375.7 403.8V437.6Z" fill="url(#w-glow)"/><rect x="355.9" y="385.6" width="2.7" height="60.0" fill="#fff" opacity="0.2"/><path d="M357.3 379.0L380.0 380.3L380.0 314.3L357.3 313.0Z" fill="rgb(206,180,140)" stroke="rgb(206,180,140)" stroke-width=".6"/><path d="M361.6 371.6V337.8A7.0 7.0 0 0 1 375.7 337.8V371.6Z" fill="url(#w-glow)"/><rect x="355.9" y="319.6" width="2.7" height="60.0" fill="#fff" opacity="0.2"/><path d="M357.3 313.0L380.0 314.3L380.0 266.3L357.3 265.0Z" fill="rgb(201,176,137)" stroke="rgb(201,176,137)" stroke-width=".6"/><rect x="364.5" y="279.6" width="8.2" height="12" fill="#5a3a26" opacity=".85"/><path d="M380.0 512.3L403.1 513.2L403.1 447.2L380.0 446.3Z" fill="rgb(213,186,143)" stroke="rgb(213,186,143)" stroke-width=".6"/><path d="M384.4 512.8V471.1A7.2 7.2 0 0 1 398.7 471.1V512.8Z" fill="url(#w-glow)"/><rect x="378.6" y="452.8" width="2.8" height="60.0" fill="#fff" opacity="0.2"/><path d="M380.0 446.3L403.1 447.2L403.1 381.2L380.0 380.3Z" fill="rgb(209,182,141)" stroke="rgb(209,182,141)" stroke-width=".6"/><path d="M384.4 438.8V405.1A7.2 7.2 0 0 1 398.7 405.1V438.8Z" fill="url(#w-glow)"/><rect x="378.6" y="386.8" width="2.8" height="60.0" fill="#fff" opacity="0.2"/><path d="M380.0 380.3L403.1 381.2L403.1 315.2L380.0 314.3Z" fill="rgb(204,178,139)" stroke="rgb(204,178,139)" stroke-width=".6"/><path d="M384.4 372.8V339.1A7.2 7.2 0 0 1 398.7 339.1V372.8Z" fill="url(#w-glow)"/><rect x="378.6" y="320.8" width="2.8" height="60.0" fill="#fff" opacity="0.2"/><path d="M380.0 314.3L403.1 315.2L403.1 267.2L380.0 266.3Z" fill="rgb(199,175,136)" stroke="rgb(199,175,136)" stroke-width=".6"/><path d="M403.1 513.2L426.5 513.8L426.5 447.8L403.1 447.2Z" fill="rgb(211,184,142)" stroke="rgb(211,184,142)" stroke-width=".6"/><path d="M407.5 513.5V471.9A7.3 7.3 0 0 1 422.0 471.9V513.5Z" fill="url(#w-glow)"/><rect x="401.7" y="453.5" width="2.8" height="60.0" fill="#fff" opacity="0.2"/><path d="M403.1 447.2L426.5 447.8L426.5 381.8L403.1 381.2Z" fill="rgb(206,180,140)" stroke="rgb(206,180,140)" stroke-width=".6"/><path d="M407.5 439.5V405.9A7.3 7.3 0 0 1 422.0 405.9V439.5Z" fill="url(#w-glow)"/><rect x="401.7" y="387.5" width="2.8" height="60.0" fill="#fff" opacity="0.2"/><path d="M403.1 381.2L426.5 381.8L426.5 315.8L403.1 315.2Z" fill="rgb(202,177,138)" stroke="rgb(202,177,138)" stroke-width=".6"/><path d="M407.5 373.5V339.9A7.3 7.3 0 0 1 422.0 339.9V373.5Z" fill="url(#w-glow)"/><rect x="401.7" y="321.5" width="2.8" height="60.0" fill="#fff" opacity="0.2"/><path d="M403.1 315.2L426.5 315.8L426.5 267.8L403.1 267.2Z" fill="rgb(197,173,135)" stroke="rgb(197,173,135)" stroke-width=".6"/><rect x="410.6" y="281.5" width="8.4" height="12" fill="#5a3a26" opacity=".85"/><path d="M426.5 513.8L450.0 514.0L450.0 448.0L426.5 447.8Z" fill="rgb(209,182,141)" stroke="rgb(209,182,141)" stroke-width=".6"/><path d="M430.9 513.9V472.4A7.3 7.3 0 0 1 445.5 472.4V513.9Z" fill="url(#w-glow)"/><rect x="425.1" y="453.9" width="2.8" height="60.0" fill="#fff" opacity="0.2"/><path d="M426.5 447.8L450.0 448.0L450.0 382.0L426.5 381.8Z" fill="rgb(204,178,139)" stroke="rgb(204,178,139)" stroke-width=".6"/><path d="M430.9 439.9V406.4A7.3 7.3 0 0 1 445.5 406.4V439.9Z" fill="url(#w-glow)"/><rect x="425.1" y="387.9" width="2.8" height="60.0" fill="#fff" opacity="0.2"/><path d="M426.5 381.8L450.0 382.0L450.0 316.0L426.5 315.8Z" fill="rgb(199,175,136)" stroke="rgb(199,175,136)" stroke-width=".6"/><path d="M430.9 373.9V340.4A7.3 7.3 0 0 1 445.5 340.4V373.9Z" fill="url(#w-glow)"/><rect x="425.1" y="321.9" width="2.8" height="60.0" fill="#fff" opacity="0.2"/><path d="M426.5 315.8L450.0 316.0L450.0 268.0L426.5 267.8Z" fill="rgb(195,171,134)" stroke="rgb(195,171,134)" stroke-width=".6"/><path d="M450.0 514.0L473.5 513.8L473.5 447.8L450.0 448.0Z" fill="rgb(206,180,140)" stroke="rgb(206,180,140)" stroke-width=".6"/><path d="M454.5 513.9V472.4A7.3 7.3 0 0 1 469.1 472.4V513.9Z" fill="url(#w-glow)"/><rect x="448.6" y="453.9" width="2.8" height="60.0" fill="#fff" opacity="0.2"/><path d="M450.0 448.0L473.5 447.8L473.5 381.8L450.0 382.0Z" fill="rgb(201,176,137)" stroke="rgb(201,176,137)" stroke-width=".6"/><path d="M454.5 439.9V406.4A7.3 7.3 0 0 1 469.1 406.4V439.9Z" fill="url(#w-glow)"/><rect x="448.6" y="387.9" width="2.8" height="60.0" fill="#fff" opacity="0.2"/><path d="M450.0 382.0L473.5 381.8L473.5 315.8L450.0 316.0Z" fill="rgb(197,173,135)" stroke="rgb(197,173,135)" stroke-width=".6"/><path d="M454.5 373.9V340.4A7.3 7.3 0 0 1 469.1 340.4V373.9Z" fill="url(#w-glow)"/><rect x="448.6" y="321.9" width="2.8" height="60.0" fill="#fff" opacity="0.2"/><path d="M450.0 316.0L473.5 315.8L473.5 267.8L450.0 268.0Z" fill="rgb(192,169,132)" stroke="rgb(192,169,132)" stroke-width=".6"/><rect x="457.5" y="281.9" width="8.5" height="12" fill="#5a3a26" opacity=".85"/><path d="M473.5 513.8L496.9 513.2L496.9 447.2L473.5 447.8Z" fill="rgb(203,178,138)" stroke="rgb(203,178,138)" stroke-width=".6"/><path d="M478.0 513.5V471.9A7.3 7.3 0 0 1 492.5 471.9V513.5Z" fill="url(#w-glow)"/><rect x="472.1" y="453.5" width="2.8" height="60.0" fill="#fff" opacity="0.2"/><path d="M473.5 447.8L496.9 447.2L496.9 381.2L473.5 381.8Z" fill="rgb(198,174,136)" stroke="rgb(198,174,136)" stroke-width=".6"/><path d="M478.0 439.5V405.9A7.3 7.3 0 0 1 492.5 405.9V439.5Z" fill="url(#w-glow)"/><rect x="472.1" y="387.5" width="2.8" height="60.0" fill="#fff" opacity="0.2"/><path d="M473.5 381.8L496.9 381.2L496.9 315.2L473.5 315.8Z" fill="rgb(193,170,133)" stroke="rgb(193,170,133)" stroke-width=".6"/><path d="M478.0 373.5V339.9A7.3 7.3 0 0 1 492.5 339.9V373.5Z" fill="url(#w-glow)"/><rect x="472.1" y="321.5" width="2.8" height="60.0" fill="#fff" opacity="0.2"/><path d="M473.5 315.8L496.9 315.2L496.9 267.2L473.5 267.8Z" fill="rgb(189,166,131)" stroke="rgb(189,166,131)" stroke-width=".6"/><path d="M496.9 513.2L520.0 512.3L520.0 446.3L496.9 447.2Z" fill="rgb(199,175,136)" stroke="rgb(199,175,136)" stroke-width=".6"/><path d="M501.3 512.8V471.1A7.2 7.2 0 0 1 515.6 471.1V512.8Z" fill="url(#w-glow)"/><rect x="495.5" y="452.8" width="2.8" height="60.0" fill="#fff" opacity="0.2"/><path d="M496.9 447.2L520.0 446.3L520.0 380.3L496.9 381.2Z" fill="rgb(195,171,134)" stroke="rgb(195,171,134)" stroke-width=".6"/><path d="M501.3 438.8V405.1A7.2 7.2 0 0 1 515.6 405.1V438.8Z" fill="url(#w-glow)"/><rect x="495.5" y="386.8" width="2.8" height="60.0" fill="#fff" opacity="0.2"/><path d="M496.9 381.2L520.0 380.3L520.0 314.3L496.9 315.2Z" fill="rgb(190,167,132)" stroke="rgb(190,167,132)" stroke-width=".6"/><path d="M501.3 372.8V339.1A7.2 7.2 0 0 1 515.6 339.1V372.8Z" fill="url(#w-glow)"/><rect x="495.5" y="320.8" width="2.8" height="60.0" fill="#fff" opacity="0.2"/><path d="M496.9 315.2L520.0 314.3L520.0 266.3L496.9 267.2Z" fill="rgb(185,164,129)" stroke="rgb(185,164,129)" stroke-width=".6"/><rect x="504.3" y="280.8" width="8.3" height="12" fill="#5a3a26" opacity=".85"/><path d="M520.0 512.3L542.7 511.0L542.7 445.0L520.0 446.3Z" fill="rgb(196,172,135)" stroke="rgb(196,172,135)" stroke-width=".6"/><path d="M524.3 511.6V469.8A7.0 7.0 0 0 1 538.4 469.8V511.6Z" fill="url(#w-glow)"/><rect x="518.7" y="451.6" width="2.7" height="60.0" fill="#fff" opacity="0.2"/><path d="M520.0 446.3L542.7 445.0L542.7 379.0L520.0 380.3Z" fill="rgb(191,168,132)" stroke="rgb(191,168,132)" stroke-width=".6"/><path d="M524.3 437.6V403.8A7.0 7.0 0 0 1 538.4 403.8V437.6Z" fill="url(#w-glow)"/><rect x="518.7" y="385.6" width="2.7" height="60.0" fill="#fff" opacity="0.2"/><path d="M520.0 380.3L542.7 379.0L542.7 313.0L520.0 314.3Z" fill="rgb(186,165,130)" stroke="rgb(186,165,130)" stroke-width=".6"/><path d="M524.3 371.6V337.8A7.0 7.0 0 0 1 538.4 337.8V371.6Z" fill="url(#w-glow)"/><rect x="518.7" y="319.6" width="2.7" height="60.0" fill="#fff" opacity="0.2"/><path d="M520.0 314.3L542.7 313.0L542.7 265.0L520.0 266.3Z" fill="rgb(182,161,127)" stroke="rgb(182,161,127)" stroke-width=".6"/><path d="M542.7 511.0L564.8 509.3L564.8 443.3L542.7 445.0Z" fill="rgb(192,169,133)" stroke="rgb(192,169,133)" stroke-width=".6"/><path d="M546.9 510.1V468.1A6.9 6.9 0 0 1 560.6 468.1V510.1Z" fill="url(#w-glow)"/><rect x="541.4" y="450.1" width="2.7" height="60.0" fill="#fff" opacity="0.2"/><path d="M542.7 445.0L564.8 443.3L564.8 377.3L542.7 379.0Z" fill="rgb(187,165,130)" stroke="rgb(187,165,130)" stroke-width=".6"/><path d="M546.9 436.1V402.1A6.9 6.9 0 0 1 560.6 402.1V436.1Z" fill="url(#w-glow)"/><rect x="541.4" y="384.1" width="2.7" height="60.0" fill="#fff" opacity="0.2"/><path d="M542.7 379.0L564.8 377.3L564.8 311.3L542.7 313.0Z" fill="rgb(183,161,128)" stroke="rgb(183,161,128)" stroke-width=".6"/><path d="M546.9 370.1V336.1A6.9 6.9 0 0 1 560.6 336.1V370.1Z" fill="url(#w-glow)"/><rect x="541.4" y="318.1" width="2.7" height="60.0" fill="#fff" opacity="0.2"/><path d="M542.7 313.0L564.8 311.3L564.8 263.3L542.7 265.0Z" fill="rgb(178,158,125)" stroke="rgb(178,158,125)" stroke-width=".6"/><rect x="549.8" y="278.1" width="8.0" height="12" fill="#5a3a26" opacity=".85"/><path d="M564.8 509.3L586.2 507.2L586.2 441.2L564.8 443.3Z" fill="rgb(188,166,130)" stroke="rgb(188,166,130)" stroke-width=".6"/><path d="M568.9 508.3V466.1A6.6 6.6 0 0 1 582.1 466.1V508.3Z" fill="url(#w-glow)"/><rect x="563.5" y="448.3" width="2.6" height="60.0" fill="#fff" opacity="0.1"/><path d="M564.8 443.3L586.2 441.2L586.2 375.2L564.8 377.3Z" fill="rgb(183,162,128)" stroke="rgb(183,162,128)" stroke-width=".6"/><path d="M568.9 434.3V400.1A6.6 6.6 0 0 1 582.1 400.1V434.3Z" fill="url(#w-glow)"/><rect x="563.5" y="382.3" width="2.6" height="60.0" fill="#fff" opacity="0.1"/><path d="M564.8 377.3L586.2 375.2L586.2 309.2L564.8 311.3Z" fill="rgb(178,158,126)" stroke="rgb(178,158,126)" stroke-width=".6"/><path d="M568.9 368.3V334.1A6.6 6.6 0 0 1 582.1 334.1V368.3Z" fill="url(#w-glow)"/><rect x="563.5" y="316.3" width="2.6" height="60.0" fill="#fff" opacity="0.1"/><path d="M564.8 311.3L586.2 309.2L586.2 261.2L564.8 263.3Z" fill="rgb(174,154,123)" stroke="rgb(174,154,123)" stroke-width=".6"/><path d="M586.2 507.2L606.7 504.9L606.7 438.9L586.2 441.2Z" fill="rgb(184,162,128)" stroke="rgb(184,162,128)" stroke-width=".6"/><path d="M590.1 506.1V463.6A6.4 6.4 0 0 1 602.8 463.6V506.1Z" fill="url(#w-glow)"/><rect x="585.0" y="446.1" width="2.5" height="60.0" fill="#fff" opacity="0.1"/><path d="M586.2 441.2L606.7 438.9L606.7 372.9L586.2 375.2Z" fill="rgb(179,159,126)" stroke="rgb(179,159,126)" stroke-width=".6"/><path d="M590.1 432.1V397.6A6.4 6.4 0 0 1 602.8 397.6V432.1Z" fill="url(#w-glow)"/><rect x="585.0" y="380.1" width="2.5" height="60.0" fill="#fff" opacity="0.1"/><path d="M586.2 375.2L606.7 372.9L606.7 306.9L586.2 309.2Z" fill="rgb(174,155,123)" stroke="rgb(174,155,123)" stroke-width=".6"/><path d="M590.1 366.1V331.6A6.4 6.4 0 0 1 602.8 331.6V366.1Z" fill="url(#w-glow)"/><rect x="585.0" y="314.1" width="2.5" height="60.0" fill="#fff" opacity="0.1"/><path d="M586.2 309.2L606.7 306.9L606.7 258.9L586.2 261.2Z" fill="rgb(169,151,121)" stroke="rgb(169,151,121)" stroke-width=".6"/><rect x="592.8" y="274.1" width="7.4" height="12" fill="#5a3a26" opacity=".85"/><path d="M606.7 504.9L626.3 502.2L626.3 436.2L606.7 438.9Z" fill="rgb(179,159,126)" stroke="rgb(179,159,126)" stroke-width=".6"/><path d="M610.5 503.5V460.7A6.1 6.1 0 0 1 622.6 460.7V503.5Z" fill="url(#w-glow)"/><rect x="605.6" y="443.5" width="2.4" height="60.0" fill="#fff" opacity="0.1"/><path d="M606.7 438.9L626.3 436.2L626.3 370.2L606.7 372.9Z" fill="rgb(174,155,124)" stroke="rgb(174,155,124)" stroke-width=".6"/><path d="M610.5 429.5V394.7A6.1 6.1 0 0 1 622.6 394.7V429.5Z" fill="url(#w-glow)"/><rect x="605.6" y="377.5" width="2.4" height="60.0" fill="#fff" opacity="0.1"/><path d="M606.7 372.9L626.3 370.2L626.3 304.2L606.7 306.9Z" fill="rgb(170,151,121)" stroke="rgb(170,151,121)" stroke-width=".6"/><path d="M610.5 363.5V328.7A6.1 6.1 0 0 1 622.6 328.7V363.5Z" fill="url(#w-glow)"/><rect x="605.6" y="311.5" width="2.4" height="60.0" fill="#fff" opacity="0.1"/><path d="M606.7 306.9L626.3 304.2L626.3 256.2L606.7 258.9Z" fill="rgb(165,148,119)" stroke="rgb(165,148,119)" stroke-width=".6"/><path d="M626.3 502.2L644.8 499.1L644.8 433.1L626.3 436.2Z" fill="rgb(174,155,124)" stroke="rgb(174,155,124)" stroke-width=".6"/><path d="M629.9 500.7V457.5A5.7 5.7 0 0 1 641.3 457.5V500.7Z" fill="url(#w-glow)"/><rect x="625.2" y="440.7" width="2.2" height="60.0" fill="#fff" opacity="0.1"/><path d="M626.3 436.2L644.8 433.1L644.8 367.1L626.3 370.2Z" fill="rgb(170,151,121)" stroke="rgb(170,151,121)" stroke-width=".6"/><path d="M629.9 426.7V391.5A5.7 5.7 0 0 1 641.3 391.5V426.7Z" fill="url(#w-glow)"/><rect x="625.2" y="374.7" width="2.2" height="60.0" fill="#fff" opacity="0.1"/><path d="M626.3 370.2L644.8 367.1L644.8 301.1L626.3 304.2Z" fill="rgb(165,148,119)" stroke="rgb(165,148,119)" stroke-width=".6"/><path d="M629.9 360.7V325.5A5.7 5.7 0 0 1 641.3 325.5V360.7Z" fill="url(#w-glow)"/><rect x="625.2" y="308.7" width="2.2" height="60.0" fill="#fff" opacity="0.1"/><path d="M626.3 304.2L644.8 301.1L644.8 253.1L626.3 256.2Z" fill="rgb(160,144,116)" stroke="rgb(160,144,116)" stroke-width=".6"/><rect x="632.3" y="268.7" width="6.7" height="12" fill="#5a3a26" opacity=".85"/><path d="M644.8 499.1L662.1 495.8L662.1 429.8L644.8 433.1Z" fill="rgb(170,151,121)" stroke="rgb(170,151,121)" stroke-width=".6"/><path d="M648.1 497.5V454.0A5.4 5.4 0 0 1 658.8 454.0V497.5Z" fill="url(#w-glow)"/><rect x="643.8" y="437.5" width="2.1" height="60.0" fill="#fff" opacity="0.1"/><path d="M644.8 433.1L662.1 429.8L662.1 363.8L644.8 367.1Z" fill="rgb(165,148,119)" stroke="rgb(165,148,119)" stroke-width=".6"/><path d="M648.1 423.5V388.0A5.4 5.4 0 0 1 658.8 388.0V423.5Z" fill="url(#w-glow)"/><rect x="643.8" y="371.5" width="2.1" height="60.0" fill="#fff" opacity="0.1"/><path d="M644.8 367.1L662.1 363.8L662.1 297.8L644.8 301.1Z" fill="rgb(160,144,116)" stroke="rgb(160,144,116)" stroke-width=".6"/><path d="M648.1 357.5V322.0A5.4 5.4 0 0 1 658.8 322.0V357.5Z" fill="url(#w-glow)"/><rect x="643.8" y="305.5" width="2.1" height="60.0" fill="#fff" opacity="0.1"/><path d="M644.8 301.1L662.1 297.8L662.1 249.8L644.8 253.1Z" fill="rgb(156,140,114)" stroke="rgb(156,140,114)" stroke-width=".6"/><path d="M662.1 495.8L678.1 492.3L678.1 426.3L662.1 429.8Z" fill="rgb(165,147,119)" stroke="rgb(165,147,119)" stroke-width=".6"/><path d="M665.2 494.1V450.2A5.0 5.0 0 0 1 675.1 450.2V494.1Z" fill="url(#w-glow)"/><rect x="661.2" y="434.1" width="1.9" height="60.0" fill="#fff" opacity="0.1"/><path d="M662.1 429.8L678.1 426.3L678.1 360.3L662.1 363.8Z" fill="rgb(160,144,116)" stroke="rgb(160,144,116)" stroke-width=".6"/><path d="M665.2 420.1V384.2A5.0 5.0 0 0 1 675.1 384.2V420.1Z" fill="url(#w-glow)"/><rect x="661.2" y="368.1" width="1.9" height="60.0" fill="#fff" opacity="0.1"/><path d="M662.1 363.8L678.1 360.3L678.1 294.3L662.1 297.8Z" fill="rgb(156,140,114)" stroke="rgb(156,140,114)" stroke-width=".6"/><path d="M665.2 354.1V318.2A5.0 5.0 0 0 1 675.1 318.2V354.1Z" fill="url(#w-glow)"/><rect x="661.2" y="302.1" width="1.9" height="60.0" fill="#fff" opacity="0.1"/><path d="M662.1 297.8L678.1 294.3L678.1 246.3L662.1 249.8Z" fill="rgb(151,136,111)" stroke="rgb(151,136,111)" stroke-width=".6"/><rect x="667.2" y="262.1" width="5.8" height="12" fill="#5a3a26" opacity=".85"/><path d="M678.1 492.3L692.7 488.4L692.7 422.4L678.1 426.3Z" fill="rgb(160,144,116)" stroke="rgb(160,144,116)" stroke-width=".6"/><path d="M680.9 490.4V446.0A4.5 4.5 0 0 1 689.9 446.0V490.4Z" fill="url(#w-glow)"/><rect x="677.2" y="430.4" width="1.7" height="60.0" fill="#fff" opacity="0.1"/><path d="M678.1 426.3L692.7 422.4L692.7 356.4L678.1 360.3Z" fill="rgb(155,140,114)" stroke="rgb(155,140,114)" stroke-width=".6"/><path d="M680.9 416.4V380.0A4.5 4.5 0 0 1 689.9 380.0V416.4Z" fill="url(#w-glow)"/><rect x="677.2" y="364.4" width="1.7" height="60.0" fill="#fff" opacity="0.1"/><path d="M678.1 360.3L692.7 356.4L692.7 290.4L678.1 294.3Z" fill="rgb(151,136,111)" stroke="rgb(151,136,111)" stroke-width=".6"/><path d="M680.9 350.4V314.0A4.5 4.5 0 0 1 689.9 314.0V350.4Z" fill="url(#w-glow)"/><rect x="677.2" y="298.4" width="1.7" height="60.0" fill="#fff" opacity="0.1"/><path d="M678.1 294.3L692.7 290.4L692.7 242.4L678.1 246.3Z" fill="rgb(146,132,109)" stroke="rgb(146,132,109)" stroke-width=".6"/><path d="M692.7 488.4L705.8 484.4L705.8 418.4L692.7 422.4Z" fill="rgb(155,140,114)" stroke="rgb(155,140,114)" stroke-width=".6"/><path d="M695.2 486.4V441.6A4.1 4.1 0 0 1 703.3 441.6V486.4Z" fill="url(#w-glow)"/><rect x="691.9" y="426.4" width="1.6" height="60.0" fill="#fff" opacity="0.1"/><path d="M692.7 422.4L705.8 418.4L705.8 352.4L692.7 356.4Z" fill="rgb(150,136,111)" stroke="rgb(150,136,111)" stroke-width=".6"/><path d="M695.2 412.4V375.6A4.1 4.1 0 0 1 703.3 375.6V412.4Z" fill="url(#w-glow)"/><rect x="691.9" y="360.4" width="1.6" height="60.0" fill="#fff" opacity="0.1"/><path d="M692.7 356.4L705.8 352.4L705.8 286.4L692.7 290.4Z" fill="rgb(146,132,109)" stroke="rgb(146,132,109)" stroke-width=".6"/><path d="M695.2 346.4V309.6A4.1 4.1 0 0 1 703.3 309.6V346.4Z" fill="url(#w-glow)"/><rect x="691.9" y="294.4" width="1.6" height="60.0" fill="#fff" opacity="0.1"/><path d="M692.7 290.4L705.8 286.4L705.8 238.4L692.7 242.4Z" fill="rgb(141,128,106)" stroke="rgb(141,128,106)" stroke-width=".6"/><rect x="696.9" y="254.4" width="4.7" height="12" fill="#5a3a26" opacity=".85"/><path d="M705.8 484.4L717.3 480.1L717.3 414.1L705.8 418.4Z" fill="rgb(150,136,111)" stroke="rgb(150,136,111)" stroke-width=".6"/><path d="M708.0 482.3V437.0A3.6 3.6 0 0 1 715.1 437.0V482.3Z" fill="url(#w-glow)"/><rect x="705.1" y="422.3" width="1.4" height="60.0" fill="#fff" opacity="0.1"/><path d="M705.8 418.4L717.3 414.1L717.3 348.1L705.8 352.4Z" fill="rgb(146,132,109)" stroke="rgb(146,132,109)" stroke-width=".6"/><path d="M708.0 408.3V371.0A3.6 3.6 0 0 1 715.1 371.0V408.3Z" fill="url(#w-glow)"/><rect x="705.1" y="356.3" width="1.4" height="60.0" fill="#fff" opacity="0.1"/><path d="M705.8 352.4L717.3 348.1L717.3 282.1L705.8 286.4Z" fill="rgb(141,128,106)" stroke="rgb(141,128,106)" stroke-width=".6"/><path d="M708.0 342.3V305.0A3.6 3.6 0 0 1 715.1 305.0V342.3Z" fill="url(#w-glow)"/><rect x="705.1" y="290.3" width="1.4" height="60.0" fill="#fff" opacity="0.1"/><path d="M705.8 286.4L717.3 282.1L717.3 234.1L705.8 238.4Z" fill="rgb(136,125,104)" stroke="rgb(136,125,104)" stroke-width=".6"/><path d="M717.3 480.1L727.2 475.7L727.2 409.7L717.3 414.1Z" fill="rgb(145,132,109)" stroke="rgb(145,132,109)" stroke-width=".6"/><path d="M719.2 477.9V432.2A3.1 3.1 0 0 1 725.3 432.2V477.9Z" fill="url(#w-glow)"/><rect x="716.7" y="417.9" width="1.2" height="60.0" fill="#fff" opacity="0.1"/><path d="M717.3 414.1L727.2 409.7L727.2 343.7L717.3 348.1Z" fill="rgb(141,128,106)" stroke="rgb(141,128,106)" stroke-width=".6"/><path d="M719.2 403.9V366.2A3.1 3.1 0 0 1 725.3 366.2V403.9Z" fill="url(#w-glow)"/><rect x="716.7" y="351.9" width="1.2" height="60.0" fill="#fff" opacity="0.1"/><path d="M717.3 348.1L727.2 343.7L727.2 277.7L717.3 282.1Z" fill="rgb(136,124,104)" stroke="rgb(136,124,104)" stroke-width=".6"/><path d="M719.2 337.9V300.2A3.1 3.1 0 0 1 725.3 300.2V337.9Z" fill="url(#w-glow)"/><rect x="716.7" y="285.9" width="1.2" height="60.0" fill="#fff" opacity="0.1"/><path d="M717.3 282.1L727.2 277.7L727.2 229.7L717.3 234.1Z" fill="rgb(131,121,101)" stroke="rgb(131,121,101)" stroke-width=".6"/><rect x="720.5" y="245.9" width="3.6" height="12" fill="#5a3a26" opacity=".85"/><path d="M727.2 475.7L735.3 471.2L735.3 405.2L727.2 409.7Z" fill="rgb(141,128,106)" stroke="rgb(141,128,106)" stroke-width=".6"/><path d="M728.7 473.4V427.1A2.5 2.5 0 0 1 733.8 427.1V473.4Z" fill="url(#w-glow)"/><rect x="726.7" y="413.4" width="1.0" height="60.0" fill="#fff" opacity="0.1"/><path d="M727.2 409.7L735.3 405.2L735.3 339.2L727.2 343.7Z" fill="rgb(136,124,104)" stroke="rgb(136,124,104)" stroke-width=".6"/><path d="M728.7 399.4V361.1A2.5 2.5 0 0 1 733.8 361.1V399.4Z" fill="url(#w-glow)"/><rect x="726.7" y="347.4" width="1.0" height="60.0" fill="#fff" opacity="0.1"/><path d="M727.2 343.7L735.3 339.2L735.3 273.2L727.2 277.7Z" fill="rgb(131,121,101)" stroke="rgb(131,121,101)" stroke-width=".6"/><path d="M728.7 333.4V295.1A2.5 2.5 0 0 1 733.8 295.1V333.4Z" fill="url(#w-glow)"/><rect x="726.7" y="281.4" width="1.0" height="60.0" fill="#fff" opacity="0.1"/><path d="M727.2 277.7L735.3 273.2L735.3 225.2L727.2 229.7Z" fill="rgb(127,117,99)" stroke="rgb(127,117,99)" stroke-width=".6"/><path d="M735.3 471.2L741.7 466.5L741.7 400.5L735.3 405.2Z" fill="rgb(136,124,104)" stroke="rgb(136,124,104)" stroke-width=".6"/><path d="M736.5 468.8V422.0A2.0 2.0 0 0 1 740.5 422.0V468.8Z" fill="url(#w-glow)"/><rect x="734.9" y="408.8" width="0.8" height="60.0" fill="#fff" opacity="0.0"/><path d="M735.3 405.2L741.7 400.5L741.7 334.5L735.3 339.2Z" fill="rgb(131,121,101)" stroke="rgb(131,121,101)" stroke-width=".6"/><path d="M736.5 394.8V356.0A2.0 2.0 0 0 1 740.5 356.0V394.8Z" fill="url(#w-glow)"/><rect x="734.9" y="342.8" width="0.8" height="60.0" fill="#fff" opacity="0.0"/><path d="M735.3 339.2L741.7 334.5L741.7 268.5L735.3 273.2Z" fill="rgb(127,117,99)" stroke="rgb(127,117,99)" stroke-width=".6"/><path d="M736.5 328.8V290.0A2.0 2.0 0 0 1 740.5 290.0V328.8Z" fill="url(#w-glow)"/><rect x="734.9" y="276.8" width="0.8" height="60.0" fill="#fff" opacity="0.0"/><path d="M735.3 273.2L741.7 268.5L741.7 220.5L735.3 225.2Z" fill="rgb(122,113,97)" stroke="rgb(122,113,97)" stroke-width=".6"/><rect x="737.4" y="236.8" width="2.3" height="12" fill="#5a3a26" opacity=".85"/><path d="M741.7 466.5L746.3 461.7L746.3 395.7L741.7 400.5Z" fill="rgb(131,121,101)" stroke="rgb(131,121,101)" stroke-width=".6"/><path d="M742.6 464.1V416.7A1.4 1.4 0 0 1 745.4 416.7V464.1Z" fill="url(#w-glow)"/><rect x="741.4" y="404.1" width="0.6" height="60.0" fill="#fff" opacity="0.0"/><path d="M741.7 400.5L746.3 395.7L746.3 329.7L741.7 334.5Z" fill="rgb(127,117,99)" stroke="rgb(127,117,99)" stroke-width=".6"/><path d="M742.6 390.1V350.7A1.4 1.4 0 0 1 745.4 350.7V390.1Z" fill="url(#w-glow)"/><rect x="741.4" y="338.1" width="0.6" height="60.0" fill="#fff" opacity="0.0"/><path d="M741.7 334.5L746.3 329.7L746.3 263.7L741.7 268.5Z" fill="rgb(122,113,97)" stroke="rgb(122,113,97)" stroke-width=".6"/><path d="M742.6 324.1V284.7A1.4 1.4 0 0 1 745.4 284.7V324.1Z" fill="url(#w-glow)"/><rect x="741.4" y="272.1" width="0.6" height="60.0" fill="#fff" opacity="0.0"/><path d="M741.7 268.5L746.3 263.7L746.3 215.7L741.7 220.5Z" fill="rgb(117,110,94)" stroke="rgb(117,110,94)" stroke-width=".6"/><path d="M746.3 461.7L749.1 456.9L749.1 390.9L746.3 395.7Z" fill="rgb(127,117,99)" stroke="rgb(127,117,99)" stroke-width=".6"/><path d="M746.8 459.3V411.3A0.9 0.9 0 0 1 748.5 411.3V459.3Z" fill="url(#w-glow)"/><rect x="746.1" y="399.3" width="0.3" height="60.0" fill="#fff" opacity="0.0"/><path d="M746.3 395.7L749.1 390.9L749.1 324.9L746.3 329.7Z" fill="rgb(122,113,97)" stroke="rgb(122,113,97)" stroke-width=".6"/><path d="M746.8 385.3V345.3A0.9 0.9 0 0 1 748.5 345.3V385.3Z" fill="url(#w-glow)"/><rect x="746.1" y="333.3" width="0.3" height="60.0" fill="#fff" opacity="0.0"/><path d="M746.3 329.7L749.1 324.9L749.1 258.9L746.3 263.7Z" fill="rgb(118,110,94)" stroke="rgb(118,110,94)" stroke-width=".6"/><path d="M746.8 319.3V279.3A0.9 0.9 0 0 1 748.5 279.3V319.3Z" fill="url(#w-glow)"/><rect x="746.1" y="267.3" width="0.3" height="60.0" fill="#fff" opacity="0.0"/><path d="M746.3 263.7L749.1 258.9L749.1 210.9L746.3 215.7Z" fill="rgb(113,106,92)" stroke="rgb(113,106,92)" stroke-width=".6"/><rect x="747.2" y="227.3" width="1.0" height="12" fill="#5a3a26" opacity=".85"/><path d="M749.1 456.9L750.0 452.0L750.0 386.0L749.1 390.9Z" fill="rgb(123,114,97)" stroke="rgb(123,114,97)" stroke-width=".6"/><path d="M749.3 454.4V405.9A0.3 0.3 0 0 1 749.8 405.9V454.4Z" fill="url(#w-glow)"/><rect x="749.0" y="394.4" width="0.1" height="60.0" fill="#fff" opacity="0.0"/><path d="M749.1 390.9L750.0 386.0L750.0 320.0L749.1 324.9Z" fill="rgb(118,110,95)" stroke="rgb(118,110,95)" stroke-width=".6"/><path d="M749.3 380.4V339.9A0.3 0.3 0 0 1 749.8 339.9V380.4Z" fill="url(#w-glow)"/><rect x="749.0" y="328.4" width="0.1" height="60.0" fill="#fff" opacity="0.0"/><path d="M749.1 324.9L750.0 320.0L750.0 254.0L749.1 258.9Z" fill="rgb(113,106,92)" stroke="rgb(113,106,92)" stroke-width=".6"/><path d="M749.3 314.4V273.9A0.3 0.3 0 0 1 749.8 273.9V314.4Z" fill="url(#w-glow)"/><rect x="749.0" y="262.4" width="0.1" height="60.0" fill="#fff" opacity="0.0"/><path d="M749.1 258.9L750.0 254.0L750.0 206.0L749.1 210.9Z" fill="rgb(109,103,90)" stroke="rgb(109,103,90)" stroke-width=".6"/><path d="M150.0 386.0L150.1 387.2L150.2 388.5L150.5 389.7L151.0 391.0L151.5 392.2L152.2 393.4L152.9 394.7L153.8 395.9L154.8 397.1L156.0 398.3L157.2 399.5L158.6 400.7L160.1 401.9L161.7 403.1L163.4 404.3L165.2 405.5L167.2 406.7L169.2 407.8L171.4 409.0L173.7 410.1L176.1 411.3L178.6 412.4L181.2 413.5L183.9 414.6L186.7 415.7L189.7 416.8L192.7 417.9L195.8 418.9L199.1 420.0L202.4 421.0L205.8 422.0L209.4 423.0L213.0 424.0L216.7 425.0L220.5 425.9L224.5 426.9L228.5 427.8L232.5 428.7L236.7 429.6L241.0 430.5L245.3 431.3L249.8 432.2L254.3 433.0L258.9 433.8L263.5 434.6L268.3 435.3L273.1 436.1L277.9 436.8L282.9 437.5L287.9 438.2L293.0 438.8L298.1 439.5L303.3 440.1L308.6 440.7L313.9 441.3L319.3 441.8L324.7 442.3L330.2 442.8L335.7 443.3L341.3 443.8L346.9 444.2L352.6 444.6L358.3 445.0L364.0 445.4L369.8 445.7L375.5 446.1L381.4 446.4L387.2 446.6L393.1 446.9L399.0 447.1L404.9 447.3L410.9 447.5L416.8 447.6L422.8 447.7L428.8 447.8L434.8 447.9L440.8 448.0L446.8 448.0L452.8 448.0L458.8 448.0L464.8 447.9L470.7 447.9L476.7 447.8L482.7 447.6L488.7 447.5L494.6 447.3L500.5 447.1L506.4 446.9L512.3 446.6L518.2 446.4L524.0 446.1L529.8 445.8L535.6 445.4L541.3 445.1L547.0 444.7L552.6 444.3L558.3 443.8L563.8 443.4L569.4 442.9L574.8 442.4L580.3 441.8L585.7 441.3L591.0 440.7L596.2 440.1L601.5 439.5L606.6 438.9L611.7 438.2L616.7 437.5L621.7 436.8L626.6 436.1L631.4 435.4L636.1 434.6L640.8 433.8L645.4 433.1L649.9 432.2L654.3 431.4L658.7 430.5L662.9 429.7L667.1 428.8L671.2 427.9L675.2 427.0L679.1 426.0L683.0 425.1L686.7 424.1L690.3 423.1L693.9 422.1L697.3 421.1L700.7 420.1L703.9 419.0L707.1 418.0L710.1 416.9L713.0 415.8L715.9 414.7L718.6 413.6L721.2 412.5L723.7 411.4L726.1 410.2L728.4 409.1L730.6 407.9L732.7 406.8L734.6 405.6L736.5 404.4L738.2 403.2L739.8 402.0L741.3 400.8L742.7 399.6L743.9 398.4L745.1 397.2L746.1 396.0L747.0 394.7L747.8 393.5L748.5 392.3L749.0 391.1L749.4 389.8L749.7 388.6L749.9 387.3L750.0 386.1" fill="none" stroke="#f3e2b8" stroke-opacity=".55" stroke-width="2.4"/><path d="M150.0 320.0L150.1 321.2L150.2 322.5L150.5 323.7L151.0 325.0L151.5 326.2L152.2 327.4L152.9 328.7L153.8 329.9L154.8 331.1L156.0 332.3L157.2 333.5L158.6 334.7L160.1 335.9L161.7 337.1L163.4 338.3L165.2 339.5L167.2 340.7L169.2 341.8L171.4 343.0L173.7 344.1L176.1 345.3L178.6 346.4L181.2 347.5L183.9 348.6L186.7 349.7L189.7 350.8L192.7 351.9L195.8 352.9L199.1 354.0L202.4 355.0L205.8 356.0L209.4 357.0L213.0 358.0L216.7 359.0L220.5 359.9L224.5 360.9L228.5 361.8L232.5 362.7L236.7 363.6L241.0 364.5L245.3 365.3L249.8 366.2L254.3 367.0L258.9 367.8L263.5 368.6L268.3 369.3L273.1 370.1L277.9 370.8L282.9 371.5L287.9 372.2L293.0 372.8L298.1 373.5L303.3 374.1L308.6 374.7L313.9 375.3L319.3 375.8L324.7 376.3L330.2 376.8L335.7 377.3L341.3 377.8L346.9 378.2L352.6 378.6L358.3 379.0L364.0 379.4L369.8 379.7L375.5 380.1L381.4 380.4L387.2 380.6L393.1 380.9L399.0 381.1L404.9 381.3L410.9 381.5L416.8 381.6L422.8 381.7L428.8 381.8L434.8 381.9L440.8 382.0L446.8 382.0L452.8 382.0L458.8 382.0L464.8 381.9L470.7 381.9L476.7 381.8L482.7 381.6L488.7 381.5L494.6 381.3L500.5 381.1L506.4 380.9L512.3 380.6L518.2 380.4L524.0 380.1L529.8 379.8L535.6 379.4L541.3 379.1L547.0 378.7L552.6 378.3L558.3 377.8L563.8 377.4L569.4 376.9L574.8 376.4L580.3 375.8L585.7 375.3L591.0 374.7L596.2 374.1L601.5 373.5L606.6 372.9L611.7 372.2L616.7 371.5L621.7 370.8L626.6 370.1L631.4 369.4L636.1 368.6L640.8 367.8L645.4 367.1L649.9 366.2L654.3 365.4L658.7 364.5L662.9 363.7L667.1 362.8L671.2 361.9L675.2 361.0L679.1 360.0L683.0 359.1L686.7 358.1L690.3 357.1L693.9 356.1L697.3 355.1L700.7 354.1L703.9 353.0L707.1 352.0L710.1 350.9L713.0 349.8L715.9 348.7L718.6 347.6L721.2 346.5L723.7 345.4L726.1 344.2L728.4 343.1L730.6 341.9L732.7 340.8L734.6 339.6L736.5 338.4L738.2 337.2L739.8 336.0L741.3 334.8L742.7 333.6L743.9 332.4L745.1 331.2L746.1 330.0L747.0 328.7L747.8 327.5L748.5 326.3L749.0 325.1L749.4 323.8L749.7 322.6L749.9 321.3L750.0 320.1" fill="none" stroke="#f3e2b8" stroke-opacity=".55" stroke-width="2.4"/><path d="M150.0 254.0L150.1 255.2L150.2 256.5L150.5 257.7L151.0 259.0L151.5 260.2L152.2 261.4L152.9 262.7L153.8 263.9L154.8 265.1L156.0 266.3L157.2 267.5L158.6 268.7L160.1 269.9L161.7 271.1L163.4 272.3L165.2 273.5L167.2 274.7L169.2 275.8L171.4 277.0L173.7 278.1L176.1 279.3L178.6 280.4L181.2 281.5L183.9 282.6L186.7 283.7L189.7 284.8L192.7 285.9L195.8 286.9L199.1 288.0L202.4 289.0L205.8 290.0L209.4 291.0L213.0 292.0L216.7 293.0L220.5 293.9L224.5 294.9L228.5 295.8L232.5 296.7L236.7 297.6L241.0 298.5L245.3 299.3L249.8 300.2L254.3 301.0L258.9 301.8L263.5 302.6L268.3 303.3L273.1 304.1L277.9 304.8L282.9 305.5L287.9 306.2L293.0 306.8L298.1 307.5L303.3 308.1L308.6 308.7L313.9 309.3L319.3 309.8L324.7 310.3L330.2 310.8L335.7 311.3L341.3 311.8L346.9 312.2L352.6 312.6L358.3 313.0L364.0 313.4L369.8 313.7L375.5 314.1L381.4 314.4L387.2 314.6L393.1 314.9L399.0 315.1L404.9 315.3L410.9 315.5L416.8 315.6L422.8 315.7L428.8 315.8L434.8 315.9L440.8 316.0L446.8 316.0L452.8 316.0L458.8 316.0L464.8 315.9L470.7 315.9L476.7 315.8L482.7 315.6L488.7 315.5L494.6 315.3L500.5 315.1L506.4 314.9L512.3 314.6L518.2 314.4L524.0 314.1L529.8 313.8L535.6 313.4L541.3 313.1L547.0 312.7L552.6 312.3L558.3 311.8L563.8 311.4L569.4 310.9L574.8 310.4L580.3 309.8L585.7 309.3L591.0 308.7L596.2 308.1L601.5 307.5L606.6 306.9L611.7 306.2L616.7 305.5L621.7 304.8L626.6 304.1L631.4 303.4L636.1 302.6L640.8 301.8L645.4 301.1L649.9 300.2L654.3 299.4L658.7 298.5L662.9 297.7L667.1 296.8L671.2 295.9L675.2 295.0L679.1 294.0L683.0 293.1L686.7 292.1L690.3 291.1L693.9 290.1L697.3 289.1L700.7 288.1L703.9 287.0L707.1 286.0L710.1 284.9L713.0 283.8L715.9 282.7L718.6 281.6L721.2 280.5L723.7 279.4L726.1 278.2L728.4 277.1L730.6 275.9L732.7 274.8L734.6 273.6L736.5 272.4L738.2 271.2L739.8 270.0L741.3 268.8L742.7 267.6L743.9 266.4L745.1 265.2L746.1 264.0L747.0 262.7L747.8 261.5L748.5 260.3L749.0 259.1L749.4 257.8L749.7 256.6L749.9 255.3L750.0 254.1" fill="none" stroke="#f3e2b8" stroke-opacity=".55" stroke-width="2.4"/><path d="M150.0 206.0L150.1 207.2L150.2 208.5L150.5 209.7L151.0 211.0L151.5 212.2L152.2 213.4L152.9 214.7L153.8 215.9L154.8 217.1L156.0 218.3L157.2 219.5L158.6 220.7L160.1 221.9L161.7 223.1L163.4 224.3L165.2 225.5L167.2 226.7L169.2 227.8L171.4 229.0L173.7 230.1L176.1 231.3L178.6 232.4L181.2 233.5L183.9 234.6L186.7 235.7L189.7 236.8L192.7 237.9L195.8 238.9L199.1 240.0L202.4 241.0L205.8 242.0L209.4 243.0L213.0 244.0L216.7 245.0L220.5 245.9L224.5 246.9L228.5 247.8L232.5 248.7L236.7 249.6L241.0 250.5L245.3 251.3L249.8 252.2L254.3 253.0L258.9 253.8L263.5 254.6L268.3 255.3L273.1 256.1L277.9 256.8L282.9 257.5L287.9 258.2L293.0 258.8L298.1 259.5L303.3 260.1L308.6 260.7L313.9 261.3L319.3 261.8L324.7 262.3L330.2 262.8L335.7 263.3L341.3 263.8L346.9 264.2L352.6 264.6L358.3 265.0L364.0 265.4L369.8 265.7L375.5 266.1L381.4 266.4L387.2 266.6L393.1 266.9L399.0 267.1L404.9 267.3L410.9 267.5L416.8 267.6L422.8 267.7L428.8 267.8L434.8 267.9L440.8 268.0L446.8 268.0L452.8 268.0L458.8 268.0L464.8 267.9L470.7 267.9L476.7 267.8L482.7 267.6L488.7 267.5L494.6 267.3L500.5 267.1L506.4 266.9L512.3 266.6L518.2 266.4L524.0 266.1L529.8 265.8L535.6 265.4L541.3 265.1L547.0 264.7L552.6 264.3L558.3 263.8L563.8 263.4L569.4 262.9L574.8 262.4L580.3 261.8L585.7 261.3L591.0 260.7L596.2 260.1L601.5 259.5L606.6 258.9L611.7 258.2L616.7 257.5L621.7 256.8L626.6 256.1L631.4 255.4L636.1 254.6L640.8 253.8L645.4 253.1L649.9 252.2L654.3 251.4L658.7 250.5L662.9 249.7L667.1 248.8L671.2 247.9L675.2 247.0L679.1 246.0L683.0 245.1L686.7 244.1L690.3 243.1L693.9 242.1L697.3 241.1L700.7 240.1L703.9 239.0L707.1 238.0L710.1 236.9L713.0 235.8L715.9 234.7L718.6 233.6L721.2 232.5L723.7 231.4L726.1 230.2L728.4 229.1L730.6 227.9L732.7 226.8L734.6 225.6L736.5 224.4L738.2 223.2L739.8 222.0L741.3 220.8L742.7 219.6L743.9 218.4L745.1 217.2L746.1 216.0L747.0 214.7L747.8 213.5L748.5 212.3L749.0 211.1L749.4 209.8L749.7 208.6L749.9 207.3L750.0 206.1" fill="none" stroke="#f3e2b8" stroke-opacity=".55" stroke-width="2.4"/></g><path d="M693.1 486.5L689.1 452.5L713.1 468.5L717.1 486.5Z" fill="#9a6a45"/><ellipse cx="450" cy="525" rx="330" ry="22" fill="#ffcf85" opacity=".12"/><g fill="#0c2e31"><circle cx="449.2" cy="515.5" r="2.6"/><rect x="446.8" y="518.0" width="4.8" height="11" rx="2"/></g><g fill="#0c2e31"><circle cx="278.5" cy="529.7" r="2.6"/><rect x="276.1" y="532.2" width="4.8" height="11" rx="2"/></g><g fill="#0c2e31"><circle cx="287.5" cy="526.0" r="2.6"/><rect x="285.1" y="528.5" width="4.8" height="11" rx="2"/></g><g fill="#0c2e31"><circle cx="622.9" cy="515.6" r="2.6"/><rect x="620.5" y="518.1" width="4.8" height="11" rx="2"/></g><g fill="#0c2e31"><circle cx="618.6" cy="528.8" r="2.6"/><rect x="616.2" y="531.3" width="4.8" height="11" rx="2"/></g><g fill="#0c2e31"><circle cx="666.8" cy="530.3" r="2.6"/><rect x="664.4" y="532.8" width="4.8" height="11" rx="2"/></g><g fill="#0c2e31"><circle cx="566.5" cy="521.7" r="2.6"/><rect x="564.1" y="524.2" width="4.8" height="11" rx="2"/></g><g fill="#0c2e31"><circle cx="339.2" cy="526.6" r="2.6"/><rect x="336.8" y="529.1" width="4.8" height="11" rx="2"/></g><g fill="#0c2e31"><circle cx="618.2" cy="521.4" r="2.6"/><rect x="615.8" y="523.9" width="4.8" height="11" rx="2"/></g></svg>